<?xml version="1.0" standalone="no"?>
<!DOCTYPE svg PUBLIC "-//W3C//DTD SVG 20010904//EN"
 "http://www.w3.org/TR/2001/REC-SVG-20010904/DTD/svg10.dtd">
<svg version="1.0" xmlns="http://www.w3.org/2000/svg"
 width="1672.000000pt" height="1672.000000pt" viewBox="0 0 1672.000000 1672.000000"
 preserveAspectRatio="xMidYMid meet">
<metadata>
Created by potrace 1.14, written by Peter Selinger 2001-2017
</metadata>
<g transform="translate(0.000000,1672.000000) scale(0.100000,-0.100000)"
fill="#000000" stroke="none">
<path d="M7965 16650 c6 -10 4 -12 -10 -6 -18 6 -18 6 1 -16 14 -17 14 -19 2
-9 -9 7 -23 9 -29 5 -7 -4 -18 1 -26 11 -8 12 -13 14 -13 6 0 -10 -3 -11 -14
-2 -10 9 -16 9 -21 1 -5 -8 -11 -7 -23 2 -13 11 -14 11 -7 -1 6 -11 4 -13 -10
-7 -14 5 -16 4 -7 -7 9 -10 8 -14 -3 -14 -8 0 -15 4 -15 9 0 4 -5 8 -11 8 -5
0 -7 -5 -3 -12 4 -7 3 -8 -4 -4 -7 4 -12 1 -12 -6 0 -9 -3 -9 -10 2 -12 19
-70 22 -63 3 4 -9 0 -11 -11 -7 -9 3 -13 11 -10 18 3 6 -1 2 -10 -8 -8 -10
-13 -23 -10 -27 3 -5 0 -9 -6 -9 -8 0 -10 10 -6 28 3 15 3 21 0 14 -3 -6 -10
-10 -14 -7 -5 3 -12 0 -16 -6 -5 -8 -3 -9 7 -4 8 5 10 4 6 0 -4 -5 -14 -10
-23 -11 -11 -2 -13 4 -9 19 5 18 4 19 -4 7 -10 -13 -12 -13 -21 0 -7 11 -10
11 -10 2 0 -7 -4 -11 -9 -7 -5 3 -13 0 -17 -6 -5 -8 -3 -9 6 -4 9 5 11 4 6 -4
-6 -9 -11 -9 -23 0 -12 10 -17 10 -25 -2 -8 -11 -9 -11 -4 4 7 21 -10 23 -18
2 -3 -8 -13 -15 -23 -14 -16 0 -16 1 2 9 22 10 21 11 -17 14 -22 1 -25 -1 -17
-16 8 -16 7 -17 -16 -8 -21 8 -25 7 -25 -8 0 -10 -3 -13 -8 -7 -8 12 -113 14
-106 3 3 -5 9 -6 13 -4 4 3 8 -1 8 -8 0 -9 -6 -10 -23 -2 -12 6 -20 15 -18 21
3 5 -3 0 -12 -12 -20 -28 -34 -29 -34 -4 0 11 -4 22 -9 25 -4 3 -6 -6 -3 -19
3 -20 0 -25 -17 -25 -12 0 -20 -3 -18 -7 3 -5 -5 -8 -18 -8 -13 0 -22 2 -20 5
3 5 -17 5 -58 1 -5 -1 -6 -5 -2 -10 3 -5 1 -13 -5 -16 -6 -4 -10 -3 -9 2 4 22
-3 32 -20 30 -11 0 -17 -5 -15 -9 3 -5 11 -5 17 -1 7 4 6 0 -2 -10 -15 -18
-26 -23 -16 -7 3 6 -1 10 -10 10 -12 0 -15 -5 -11 -17 5 -15 4 -15 -9 1 -13
17 -15 17 -15 4 0 -9 -5 -20 -12 -24 -7 -4 -8 -3 -4 4 4 7 2 12 -4 12 -6 0 -8
5 -4 13 6 9 5 9 -7 0 -11 -9 -19 -9 -26 -2 -7 7 -14 5 -22 -4 -9 -12 -6 -14
19 -12 17 1 28 0 25 -3 -12 -12 -80 -9 -101 4 -12 7 -25 10 -29 6 -4 -4 -11
-7 -15 -7 -5 0 -16 -9 -25 -20 -9 -11 -14 -14 -10 -8 4 9 1 11 -9 7 -9 -3 -13
-10 -10 -15 3 -5 -2 -6 -10 -3 -9 3 -16 10 -16 15 0 6 -6 4 -14 -3 -8 -7 -11
-17 -8 -23 3 -5 -2 -4 -11 4 -20 16 -22 22 -6 18 6 -1 13 4 15 11 1 7 0 8 -3
2 -2 -5 -9 -8 -14 -4 -5 3 -12 -2 -15 -11 -5 -13 -9 -13 -22 -3 -13 11 -14 11
-8 0 9 -15 -9 -41 -27 -38 -7 1 -22 7 -34 14 -14 8 -24 9 -28 2 -4 -6 -10 -8
-15 -5 -5 3 -12 0 -16 -6 -4 -8 -3 -9 4 -5 7 4 10 2 7 -6 -3 -8 -15 -14 -26
-15 -18 -2 -19 0 -7 15 11 15 10 15 -8 0 -23 -20 -39 -24 -28 -6 4 7 3 8 -4 4
-7 -4 -12 -14 -12 -22 0 -8 -4 -13 -10 -9 -5 3 -7 13 -4 23 5 15 5 15 -6 -1
-6 -9 -8 -22 -4 -29 4 -7 3 -8 -5 -4 -6 4 -19 2 -28 -6 -9 -7 -14 -8 -10 -2 4
7 -3 14 -17 16 -17 4 -23 1 -19 -9 3 -7 10 -10 16 -6 6 3 7 1 3 -6 -6 -8 -12
-9 -20 -2 -9 7 -16 7 -25 -2 -10 -9 -11 -8 -5 8 6 16 5 18 -7 8 -7 -7 -23 -13
-35 -13 -13 0 -26 -4 -29 -10 -4 -6 1 -7 12 -4 15 6 15 4 -2 -9 -13 -10 -25
-12 -37 -6 -23 12 -48 11 -48 -2 0 -5 4 -7 10 -4 6 3 7 -1 3 -10 -5 -13 -7
-14 -14 -3 -5 7 -9 9 -9 4 0 -5 -7 -2 -17 5 -15 13 -15 12 -3 -11 12 -23 12
-24 -3 -12 -9 8 -21 11 -28 7 -6 -4 -15 -1 -20 6 -8 12 -12 11 -22 -3 -10 -12
-17 -14 -32 -6 -11 6 -17 7 -13 3 4 -4 0 -14 -10 -22 -10 -9 -11 -11 -2 -7 13
7 13 5 1 -9 -7 -9 -19 -17 -25 -17 -6 0 -5 4 3 9 11 7 9 11 -7 20 -19 10 -21
9 -15 -6 6 -16 5 -16 -11 -4 -13 11 -19 12 -29 2 -9 -10 -8 -11 8 -6 15 5 17
4 6 -3 -17 -12 -43 -4 -34 11 3 6 1 7 -6 3 -9 -6 -9 -11 -1 -21 13 -15 -5 -16
-28 -1 -7 4 -16 5 -19 2 -4 -3 -2 -6 4 -6 6 0 13 -7 17 -15 5 -13 2 -13 -19 1
-24 16 -30 12 -27 -16 0 -4 -17 -5 -39 -4 -22 1 -42 -3 -46 -9 -3 -6 -1 -7 5
-3 8 5 10 2 6 -8 -5 -13 -9 -12 -25 7 -10 12 -18 16 -19 10 0 -12 -52 -44 -67
-42 -4 0 -9 -5 -11 -13 -2 -9 0 -8 8 2 10 13 11 13 7 0 -2 -8 -9 -15 -16 -15
-6 0 -15 -6 -20 -13 -7 -11 -9 -10 -15 3 -3 9 -10 13 -16 10 -5 -3 -10 -1 -10
6 0 7 -3 9 -7 5 -5 -4 1 -15 12 -23 14 -11 15 -14 4 -10 -9 3 -22 0 -28 -6 -6
-6 -11 -7 -11 -2 0 5 -12 -2 -26 -16 -14 -13 -25 -19 -24 -14 5 21 0 36 -10
30 -6 -4 -8 -11 -5 -16 3 -5 -1 -6 -9 -3 -9 3 -13 11 -9 17 3 6 1 7 -6 3 -9
-6 -9 -11 -1 -21 9 -11 7 -12 -11 -8 -15 4 -20 2 -15 -5 3 -6 1 -14 -5 -18 -7
-4 -9 -3 -6 3 4 6 0 14 -8 17 -17 6 -31 -17 -20 -33 4 -7 -2 -8 -17 -3 -34 12
-53 9 -52 -10 1 -11 -4 -14 -14 -11 -11 5 -13 3 -7 -7 5 -9 4 -11 -4 -6 -6 4
-18 3 -26 -4 -10 -8 -15 -8 -21 1 -4 7 -3 9 4 5 6 -3 13 -3 16 2 2 4 -6 8 -19
8 -19 0 -22 -3 -14 -17 6 -12 5 -20 -1 -24 -6 -4 -10 -3 -9 2 4 22 -3 22 -24
-3 -17 -20 -24 -23 -24 -11 0 9 5 13 10 10 6 -3 7 -1 3 6 -6 9 -11 9 -23 0
-12 -10 -16 -10 -24 2 -5 8 -9 10 -9 5 0 -5 8 -19 17 -30 10 -12 11 -15 3 -9
-11 10 -17 9 -32 -4 -12 -10 -22 -13 -26 -8 -4 6 -13 11 -20 13 -10 2 -10 -2
-3 -16 9 -17 6 -19 -30 -18 -35 1 -38 0 -23 -11 16 -11 14 -13 -14 -9 -29 3
-32 1 -27 -18 5 -17 4 -18 -4 -6 -6 8 -16 15 -23 16 -18 0 -39 -17 -32 -27 3
-5 0 -9 -6 -9 -6 0 -8 -5 -4 -11 4 -7 0 -9 -14 -5 -12 4 -23 2 -28 -5 -5 -8
-3 -9 6 -4 9 6 11 4 5 -4 -5 -9 -10 -10 -18 -2 -6 6 -16 11 -21 11 -6 0 -4 -5
4 -10 12 -8 10 -10 -10 -10 -41 0 -60 -3 -54 -9 9 -10 28 -8 37 4 5 6 7 4 4
-5 -2 -10 -16 -15 -45 -14 -23 0 -39 -3 -36 -7 2 -5 11 -6 18 -3 8 3 17 1 21
-5 4 -7 0 -8 -11 -4 -13 5 -15 3 -9 -8 6 -9 -1 -8 -20 5 l-30 19 25 -29 c14
-16 17 -23 8 -15 -9 7 -23 9 -29 5 -8 -5 -9 -3 -4 5 6 10 2 10 -16 0 -23 -13
-43 -19 -65 -21 -6 -1 -10 -12 -8 -25 1 -13 -2 -21 -7 -17 -5 3 -7 9 -5 13 3
4 -1 8 -9 8 -10 0 -11 -5 -5 -17 6 -12 5 -17 -5 -17 -8 0 -11 5 -8 11 4 6 -1
5 -10 -3 -9 -7 -24 -11 -32 -7 -12 4 -13 2 -5 -13 8 -16 7 -18 -12 -13 -14 3
-19 1 -14 -6 4 -7 2 -12 -3 -12 -6 0 -11 5 -11 11 0 5 -5 7 -10 4 -8 -5 -7
-12 2 -23 12 -15 11 -16 -6 -2 -16 13 -20 12 -31 -3 -13 -18 -31 -24 -20 -7 4
7 -2 7 -18 1 -14 -6 -28 -7 -32 -3 -4 4 -5 1 -3 -7 2 -7 -5 -15 -15 -16 -11
-2 -22 -7 -25 -11 -4 -4 0 -5 9 -2 9 4 16 1 16 -7 0 -14 -14 -14 -34 -2 -8 5
-13 3 -13 -3 0 -6 -5 -8 -12 -4 -7 4 -8 3 -4 -5 4 -6 11 -9 16 -6 5 3 11 2 14
-3 7 -12 -48 -10 -57 2 -5 7 -7 3 -5 -9 3 -11 -4 -29 -15 -40 -11 -11 -17 -14
-13 -8 9 17 -9 50 -18 34 -4 -6 -2 -11 4 -11 6 0 9 -4 5 -9 -3 -6 -14 -8 -25
-6 -13 3 -17 -1 -13 -11 3 -8 10 -14 16 -14 6 0 7 -3 4 -6 -4 -4 -13 -2 -21 5
-11 9 -15 8 -20 -5 -4 -11 -13 -14 -27 -11 -16 4 -18 3 -9 -7 8 -11 3 -13 -22
-12 -19 0 -31 -4 -28 -9 2 -6 11 -8 20 -7 8 2 2 -7 -15 -20 -35 -27 -46 -29
-62 -8 -10 13 -11 12 -7 -6 6 -24 -11 -41 -22 -23 -5 8 -3 9 6 4 9 -5 11 -4 6
4 -11 18 -25 4 -20 -22 2 -12 2 -16 -2 -9 -8 17 -27 15 -21 -3 4 -8 2 -17 -4
-20 -5 -4 -9 -3 -8 2 1 4 1 15 0 23 -1 13 -3 13 -10 0 -6 -8 -8 -17 -5 -21 2
-5 -4 -6 -14 -4 -15 3 -18 -2 -16 -21 1 -13 -2 -24 -7 -24 -6 0 -9 6 -7 14 2
8 -1 15 -7 14 -5 0 -9 -5 -7 -10 2 -6 -5 -8 -14 -4 -14 5 -15 4 -4 -9 11 -14
10 -14 -14 -5 -19 7 -25 7 -21 -1 4 -6 -3 -13 -15 -16 -15 -4 -18 -8 -10 -13
7 -4 9 -13 5 -19 -5 -9 -11 -7 -22 6 -8 10 -12 13 -9 6 10 -20 -4 -40 -29 -40
-14 0 -22 3 -19 8 3 5 -2 6 -12 2 -15 -5 -15 -7 0 -15 17 -9 13 -28 -5 -28 -6
0 -7 5 -4 11 4 6 -1 5 -13 -2 -10 -7 -24 -24 -30 -38 -9 -22 -10 -22 -6 -3 5
21 4 22 -15 10 -22 -13 -30 -34 -8 -22 6 4 3 -2 -7 -14 -20 -23 -32 -30 -21
-12 3 6 1 10 -4 10 -6 0 -11 -5 -11 -11 0 -8 -6 -7 -17 2 -15 13 -15 12 -5 -8
10 -19 9 -20 -10 -15 -16 4 -19 2 -13 -8 6 -9 4 -11 -5 -5 -9 6 -12 4 -8 -6 4
-11 -1 -14 -23 -13 -16 1 -27 -2 -24 -6 5 -9 -33 -26 -49 -22 -5 2 -6 -5 -2
-14 4 -12 2 -15 -9 -11 -8 4 -17 1 -21 -5 -4 -7 -3 -8 4 -4 7 4 12 2 12 -3 0
-6 -5 -11 -11 -11 -5 0 -7 -6 -3 -12 5 -8 0 -7 -11 2 -17 14 -18 13 -12 -4 6
-14 4 -17 -9 -12 -12 4 -15 2 -10 -9 8 -21 -33 -42 -46 -24 -7 11 -8 9 -4 -5
5 -14 2 -17 -10 -12 -13 5 -14 3 -6 -7 8 -9 8 -17 0 -27 -8 -13 -9 -12 -5 2 3
9 0 19 -8 22 -10 3 -12 0 -8 -12 6 -15 5 -16 -13 -2 -10 8 -16 10 -12 6 4 -5
3 -15 -4 -23 -9 -11 -7 -12 8 -7 18 5 18 5 1 -6 -9 -6 -22 -8 -27 -5 -6 3 -11
-1 -11 -9 -3 -30 -4 -34 -13 -43 -5 -5 -6 -3 -2 5 4 6 2 12 -3 12 -6 0 -11 -5
-11 -11 0 -6 -7 -8 -17 -5 -10 4 -14 4 -10 0 4 -4 -1 -13 -11 -21 -15 -12 -14
-13 8 -2 23 11 24 11 11 -4 -14 -18 -57 -24 -46 -7 3 6 -1 7 -10 3 -9 -3 -13
-9 -8 -12 8 -5 9 -15 4 -37 0 -4 -8 0 -18 7 -12 10 -17 11 -20 2 -2 -7 -12 -9
-21 -6 -14 4 -15 3 -2 -5 9 -7 19 -7 25 -2 8 7 12 5 12 -5 0 -8 -4 -12 -8 -10
-3 3 -12 -2 -19 -10 -15 -18 -40 -20 -40 -3 0 6 -3 8 -6 5 -4 -4 -2 -13 5 -21
9 -11 8 -15 -4 -20 -9 -3 -14 -10 -10 -15 3 -5 1 -12 -4 -15 -11 -7 -9 13 4
34 7 12 6 13 -7 3 -8 -7 -18 -10 -21 -7 -4 4 -5 -3 -2 -14 3 -16 -1 -20 -15
-17 -14 3 -17 -1 -13 -12 5 -13 1 -15 -20 -11 -21 4 -25 2 -17 -7 8 -10 7 -15
-1 -21 -8 -4 -9 -3 -5 4 4 7 2 12 -3 12 -11 0 -15 -15 -12 -34 1 -5 -5 -3 -14
4 -13 11 -15 10 -10 -3 4 -8 1 -18 -6 -23 -7 -4 -10 -3 -6 3 3 5 0 10 -8 10
-10 0 -11 -5 -4 -18 14 -27 11 -35 -6 -13 -8 10 -15 15 -14 9 1 -5 1 -19 0
-29 -1 -20 -1 -20 -16 0 -12 15 -14 15 -9 2 3 -9 -1 -27 -10 -40 -18 -25 -22
-17 -6 13 18 33 3 21 -20 -16 -12 -19 -26 -33 -30 -30 -5 3 -14 -5 -20 -17
-11 -22 -10 -22 4 -4 9 11 16 15 16 9 0 -17 -28 -35 -42 -27 -8 5 -8 1 2 -11
9 -11 10 -16 3 -11 -7 4 -13 2 -13 -3 0 -6 -7 -11 -15 -11 -14 0 -19 -11 -16
-35 1 -5 -6 -1 -15 10 -16 20 -16 20 -9 -4 5 -16 4 -21 -4 -17 -6 4 -11 0 -11
-8 0 -9 -5 -16 -11 -16 -5 0 -7 5 -3 12 4 7 3 8 -5 4 -6 -4 -9 -12 -6 -17 4
-5 -1 -12 -9 -15 -9 -3 -16 -12 -16 -19 0 -17 -37 -48 -49 -41 -5 4 -13 1 -17
-5 -5 -8 -3 -9 6 -4 8 5 11 3 8 -6 -3 -8 -14 -14 -26 -14 -11 0 -24 -4 -29 -9
-5 -5 -3 -6 4 -2 7 4 13 2 13 -4 0 -6 5 -8 12 -4 6 4 8 3 4 -4 -3 -6 -16 -9
-27 -7 -15 3 -18 1 -11 -8 8 -9 3 -19 -15 -35 -14 -13 -23 -16 -20 -8 3 8 -2
20 -11 28 -15 11 -15 11 -5 -3 7 -9 9 -19 5 -23 -4 -4 -8 -12 -8 -17 -3 -22
-5 -23 -14 -9 -8 13 -10 13 -10 -2 0 -18 -33 -42 -43 -32 -3 3 -4 -6 -3 -20 3
-20 0 -24 -9 -16 -10 8 -15 8 -21 -1 -5 -8 -3 -9 6 -4 8 5 11 3 8 -6 -3 -8
-13 -14 -24 -14 -13 0 -19 -7 -19 -22 0 -12 -4 -25 -9 -30 -5 -5 -6 -3 -2 5 4
6 2 12 -5 12 -7 0 -9 -8 -6 -21 4 -17 3 -19 -6 -10 -17 17 -31 13 -17 -4 7 -9
10 -18 6 -22 -3 -3 -6 -1 -6 5 0 7 -5 12 -11 12 -5 0 -7 -4 -4 -10 3 -5 1 -10
-4 -10 -6 0 -11 5 -11 12 0 6 -3 9 -6 6 -3 -4 0 -17 7 -30 12 -22 11 -22 -6
-8 -17 14 -18 13 -12 -4 7 -17 6 -17 -10 -5 -11 9 -14 10 -9 2 5 -9 1 -13 -10
-13 -16 0 -16 -1 1 -14 18 -13 17 -14 -13 -11 -17 1 -29 -1 -26 -6 3 -5 10 -7
15 -4 5 4 9 -1 9 -10 0 -11 -5 -15 -14 -12 -10 4 -12 0 -9 -14 3 -11 0 -19 -6
-19 -7 0 -10 4 -6 9 3 5 1 12 -4 15 -11 7 -9 -13 3 -32 5 -9 1 -15 -13 -19
-11 -3 -18 -10 -14 -16 3 -6 1 -7 -5 -3 -7 4 -12 1 -12 -8 0 -8 -11 -23 -25
-34 -13 -11 -22 -22 -19 -25 4 -3 -3 -18 -15 -33 -11 -15 -21 -22 -21 -17 0 5
5 14 12 21 7 7 8 12 2 12 -5 0 -15 -10 -23 -21 -11 -18 -11 -23 1 -30 7 -5 8
-9 3 -9 -6 0 -16 5 -22 11 -9 9 -11 5 -9 -13 2 -15 -2 -25 -10 -25 -7 0 -11 5
-8 11 3 6 -1 3 -9 -6 -8 -10 -17 -16 -20 -13 -4 3 -5 2 -2 -2 3 -3 -1 -13 -8
-22 -10 -14 -10 -14 5 -3 11 9 18 10 23 2 4 -6 3 -10 -2 -9 -4 1 -16 -1 -26
-6 -14 -6 -15 -10 -5 -23 12 -14 10 -14 -12 -2 -14 7 -22 9 -18 5 4 -5 3 -14
-3 -22 -9 -10 -8 -17 2 -30 13 -16 12 -17 -3 -4 -15 11 -19 11 -24 -2 -3 -9
-2 -21 2 -28 4 -7 3 -9 -4 -5 -6 3 -12 1 -15 -6 -2 -7 -3 -5 -2 5 2 9 -1 17
-6 17 -5 0 -9 -7 -9 -16 0 -8 -4 -13 -9 -9 -6 3 -8 -6 -5 -20 2 -14 0 -25 -6
-25 -6 0 -9 4 -6 8 3 5 -1 9 -9 9 -8 0 -12 -4 -9 -8 2 -4 -4 -13 -13 -19 -17
-11 -17 -11 0 -6 11 3 17 0 17 -9 0 -8 -6 -14 -13 -13 -6 2 -11 -3 -9 -9 2
-12 -5 -15 -24 -12 -13 2 -23 -26 -13 -37 7 -8 6 -15 -2 -20 -8 -4 -9 -3 -5 4
4 7 1 12 -8 12 -8 0 -18 -5 -22 -12 -4 -7 -3 -8 4 -4 7 4 12 2 12 -3 0 -6 -6
-11 -14 -11 -8 0 -17 -4 -21 -9 -3 -6 7 -8 22 -6 l28 4 -30 -14 c-16 -7 -34
-11 -39 -7 -5 3 -6 0 -2 -6 3 -6 16 -9 28 -7 11 3 17 1 14 -3 -4 -4 -13 -7
-19 -7 -7 -1 -11 -6 -10 -13 2 -6 -4 -9 -12 -6 -8 4 -12 11 -8 17 3 5 1 7 -4
4 -6 -4 -8 -19 -5 -33 4 -23 2 -26 -13 -20 -15 5 -16 4 -6 -8 9 -11 9 -15 -1
-19 -10 -4 -10 -8 2 -16 12 -9 10 -11 -12 -11 -19 0 -31 -9 -47 -36 -12 -19
-18 -40 -14 -46 4 -7 1 -9 -9 -6 -9 4 -15 0 -15 -8 0 -8 4 -14 9 -14 5 0 6 -5
2 -11 -4 -8 -12 -3 -20 12 -12 21 -13 21 -11 4 1 -11 6 -26 10 -32 6 -9 3 -11
-9 -6 -14 5 -15 3 -5 -16 7 -12 8 -21 4 -20 -21 3 -24 -2 -12 -18 13 -16 12
-17 -4 -4 -14 11 -15 16 -5 29 9 10 9 13 1 9 -6 -4 -14 -1 -17 5 -3 7 -3 1 -1
-14 2 -19 -1 -28 -10 -28 -8 0 -17 -5 -21 -12 -4 -7 -3 -8 4 -4 16 10 15 -2
-2 -19 -7 -8 -17 -11 -20 -7 -4 3 -4 -1 0 -11 6 -17 7 -17 21 0 13 16 13 16 3
-4 -7 -15 -16 -20 -27 -16 -13 5 -15 1 -11 -20 5 -23 3 -25 -15 -16 -13 7 -17
8 -13 1 3 -6 2 -13 -4 -17 -16 -10 -12 -25 8 -26 14 0 14 -2 -3 -9 -11 -5 -16
-9 -11 -9 5 -1 3 -7 -3 -14 -6 -8 -7 -18 -3 -22 4 -5 1 -5 -6 -1 -10 6 -10 11
-2 21 8 10 8 15 -1 21 -7 4 -9 3 -5 -4 3 -6 1 -14 -5 -17 -5 -4 -8 -14 -4 -22
4 -13 3 -14 -10 -3 -13 11 -14 10 -9 -4 3 -9 11 -16 17 -16 6 0 1 -7 -11 -16
-12 -8 -20 -19 -17 -24 3 -4 -4 -6 -14 -3 -14 3 -21 -2 -26 -19 -4 -12 -17
-33 -28 -45 -11 -13 -17 -23 -13 -23 5 0 1 -11 -8 -25 -9 -13 -16 -31 -16 -40
0 -10 -5 -13 -11 -9 -7 4 -10 1 -7 -7 3 -8 11 -13 17 -11 7 1 10 -2 6 -7 -3
-6 -13 -7 -21 -4 -14 5 -15 3 -4 -18 12 -22 12 -23 -3 -10 -18 14 -20 8 -20
-51 0 -9 -5 -16 -11 -15 -6 1 -10 -7 -9 -18 1 -11 0 -14 -3 -7 -6 13 -25 17
-23 5 3 -20 -2 -34 -10 -28 -5 3 -13 0 -17 -6 -4 -7 -3 -9 4 -5 6 3 13 2 17
-4 6 -9 -8 -15 -29 -11 -5 1 -3 -5 4 -14 7 -8 10 -19 6 -22 -4 -4 -11 -1 -16
7 -6 8 -10 10 -10 5 0 -6 5 -16 10 -21 8 -8 5 -15 -7 -25 -16 -13 -17 -12 -4
4 12 15 12 17 -3 11 -11 -4 -15 -13 -10 -26 4 -14 2 -18 -5 -14 -6 4 -11 4
-10 -1 3 -19 -2 -34 -10 -28 -5 3 -13 1 -16 -5 -4 -6 -3 -10 2 -9 22 4 25 -3
7 -17 -10 -8 -13 -13 -6 -9 6 3 12 2 12 -3 0 -16 -13 -22 -26 -11 -10 8 -12 5
-8 -16 3 -15 1 -24 -4 -21 -5 3 -8 -6 -6 -19 1 -14 -2 -27 -7 -31 -5 -3 -6
-10 -3 -16 4 -7 2 -8 -4 -4 -7 4 -13 1 -14 -6 -5 -44 -18 -70 -33 -64 -9 3
-12 -4 -11 -23 1 -16 -3 -28 -10 -28 -7 0 -10 7 -6 16 6 17 4 16 -18 -12 -7
-10 -9 -17 -4 -16 26 5 35 -1 22 -15 -10 -11 -16 -11 -27 -2 -12 8 -13 8 -7
-2 5 -8 1 -18 -10 -27 -18 -13 -18 -13 0 -12 10 1 21 -5 23 -13 4 -13 3 -13
-6 0 -9 13 -11 13 -11 -2 0 -9 -8 -22 -17 -28 -17 -11 -17 -11 -1 -6 10 3 20
0 24 -6 5 -7 2 -8 -6 -3 -9 6 -10 2 -5 -16 7 -23 6 -23 -7 -5 -10 12 -17 15
-22 8 -3 -6 -2 -13 4 -17 6 -4 8 -11 4 -16 -3 -5 0 -18 8 -27 12 -15 11 -16
-5 -3 -13 10 -20 11 -31 2 -14 -11 -19 -54 -6 -46 3 2 6 -5 6 -15 0 -15 -3
-17 -15 -7 -12 10 -13 9 -2 -11 11 -20 9 -23 -14 -32 -31 -12 -33 -24 -2 -15
15 4 18 3 8 -3 -11 -8 -11 -10 0 -15 8 -3 2 -4 -12 -2 -17 2 -26 -2 -26 -11 0
-7 4 -11 8 -8 4 2 10 0 13 -5 4 -5 -5 -8 -19 -6 -20 2 -23 -1 -14 -11 6 -7 18
-10 27 -7 14 4 15 3 2 -5 -8 -6 -18 -8 -22 -6 -4 3 -8 -2 -8 -11 0 -10 5 -14
13 -10 6 4 3 -2 -9 -12 -29 -25 -39 -54 -16 -46 13 4 12 2 -3 -10 -18 -14 -21
-14 -27 4 -4 10 -10 19 -13 19 -3 0 1 -15 9 -34 16 -39 11 -52 -13 -33 -14 11
-15 10 -1 -7 16 -21 23 -49 9 -40 -5 3 -7 9 -5 13 3 4 0 8 -7 8 -7 0 -13 -8
-13 -18 0 -10 4 -15 8 -13 4 3 8 0 8 -5 0 -6 -7 -11 -15 -11 -8 0 -15 -5 -15
-11 0 -5 4 -8 9 -4 5 3 12 1 16 -5 5 -9 -14 -15 -37 -11 -4 0 -5 -6 -1 -15 5
-13 8 -13 15 -2 7 9 8 8 4 -5 -3 -10 -6 -21 -6 -23 0 -3 -4 -3 -8 0 -10 6 -8
-36 3 -55 5 -8 -1 -5 -13 5 -12 11 -25 16 -29 13 -3 -4 -2 -7 4 -7 16 0 24
-28 11 -36 -7 -4 -8 -3 -4 4 4 7 4 12 -1 12 -14 0 -34 -53 -22 -60 7 -5 6 -12
-3 -21 -7 -8 -13 -24 -12 -37 1 -16 -3 -21 -12 -18 -22 8 -28 -14 -8 -29 14
-10 16 -17 8 -25 -9 -9 -14 -9 -19 1 -5 8 -4 10 3 5 7 -4 12 -2 12 3 0 13 -17
14 -25 2 -3 -5 2 -17 11 -25 14 -15 13 -16 -8 -16 -18 0 -20 -2 -8 -10 14 -9
7 -15 -14 -11 -5 1 -4 -4 2 -12 7 -8 9 -17 5 -20 -3 -4 0 -14 7 -22 7 -9 9
-15 4 -14 -5 1 -16 1 -24 0 -13 -1 -13 -3 0 -10 8 -6 19 -7 25 -3 5 3 4 -2 -4
-11 -7 -9 -19 -17 -26 -17 -7 0 -16 -8 -20 -17 -5 -15 -4 -16 6 -5 7 6 17 12
22 12 5 0 2 -7 -7 -15 -8 -8 -13 -24 -11 -35 2 -12 -1 -17 -10 -14 -7 3 -16 0
-21 -7 -4 -8 -3 -10 4 -5 8 5 12 -1 12 -16 0 -13 6 -30 12 -37 11 -11 10 -12
-2 -5 -26 14 -46 11 -46 -8 0 -17 9 -22 29 -19 5 1 6 -3 2 -9 -3 -6 -11 -8
-16 -5 -5 4 -9 1 -9 -5 0 -6 -5 -8 -12 -4 -7 4 -8 3 -4 -5 4 -6 11 -9 15 -7 4
3 8 -1 8 -9 0 -8 -5 -11 -10 -8 -6 4 -8 -1 -4 -11 5 -14 3 -17 -8 -12 -23 8
-18 -9 7 -28 18 -12 19 -14 4 -9 -13 4 -17 3 -12 -5 3 -6 2 -13 -3 -17 -6 -3
-8 4 -6 15 2 11 0 18 -6 15 -5 -4 -7 -11 -4 -16 4 -5 1 -9 -6 -9 -6 0 -1 -9
12 -21 l24 -20 -25 12 -25 12 20 -23 c11 -13 14 -20 6 -15 -11 6 -13 4 -8 -9
4 -10 1 -19 -8 -22 -9 -4 -13 -16 -10 -35 2 -16 -1 -27 -6 -24 -5 4 -9 2 -9
-4 0 -5 6 -12 13 -14 7 -3 4 -6 -7 -6 -15 -1 -16 -4 -6 -16 10 -12 8 -14 -9
-10 -11 2 -23 -1 -27 -6 -3 -5 -2 -9 3 -8 19 3 33 -2 33 -12 0 -5 -4 -7 -10
-4 -5 3 -10 1 -10 -5 0 -6 -5 -8 -12 -4 -7 4 -1 -8 12 -26 13 -18 19 -30 12
-26 -7 4 -12 2 -12 -5 0 -8 -5 -8 -17 2 -14 10 -13 8 2 -10 11 -14 14 -21 7
-17 -7 4 -12 1 -12 -8 0 -8 6 -17 13 -19 8 -4 7 -6 -3 -6 -9 -1 -22 5 -29 12
-10 10 -11 9 -6 -4 4 -10 1 -20 -4 -24 -6 -3 -8 -12 -4 -18 4 -7 8 -28 10 -47
1 -19 5 -47 7 -62 3 -22 1 -26 -15 -23 -13 3 -17 0 -12 -8 12 -20 12 -36 -1
-31 -7 3 -13 -2 -13 -10 0 -8 5 -12 10 -9 6 4 8 0 4 -9 -3 -9 0 -21 6 -27 9
-9 7 -10 -8 -5 -18 7 -19 6 -5 -11 8 -10 10 -16 3 -12 -8 5 -11 0 -10 -13 2
-25 6 -25 24 -2 13 15 13 15 3 -5 -6 -13 -18 -23 -28 -24 -13 0 -11 -3 6 -9
12 -5 22 -12 22 -15 0 -4 -5 -3 -10 0 -7 4 -9 -3 -6 -18 4 -21 1 -24 -17 -20
-21 5 -21 5 -3 -9 15 -12 16 -17 6 -23 -9 -6 -11 -4 -5 6 5 8 -1 5 -13 -5 -18
-16 -20 -22 -9 -34 6 -8 11 -24 9 -35 -2 -12 1 -17 7 -13 6 4 11 3 11 -2 0 -6
-7 -13 -16 -16 -8 -3 -12 -2 -9 3 3 5 1 12 -3 15 -18 11 -6 -60 13 -77 11 -10
14 -16 8 -12 -14 7 -18 -7 -6 -19 12 -12 11 -33 -2 -33 -8 0 -12 9 -10 19 2
10 0 16 -5 13 -5 -3 -7 -17 -4 -30 2 -14 -1 -35 -8 -48 -15 -28 -19 -49 -7
-41 5 3 6 10 3 16 -5 7 -2 8 6 3 9 -5 11 -4 6 3 -4 7 -2 12 3 12 15 0 14 -6
-5 -35 -9 -14 -20 -22 -25 -19 -5 3 -6 -2 -2 -11 5 -13 7 -14 14 -3 6 9 9 9 9
1 0 -6 -5 -15 -11 -19 -8 -4 -7 -9 2 -15 10 -6 11 -9 2 -9 -7 0 -13 -8 -13
-17 0 -15 2 -16 10 -3 6 9 10 10 10 3 0 -6 -5 -15 -10 -18 -6 -4 -7 -12 -3
-18 4 -7 -1 -6 -10 2 -15 12 -17 12 -11 -3 3 -9 12 -16 19 -16 14 0 14 -24 0
-37 -4 -4 -5 -3 -1 4 3 6 2 14 -3 17 -5 4 -8 -1 -7 -10 1 -8 9 -20 17 -25 11
-7 10 -9 -6 -9 -17 0 -17 -2 -5 -10 12 -8 12 -10 -5 -10 -16 0 -17 -2 -5 -9 8
-6 19 -7 25 -3 5 3 4 -2 -4 -11 -11 -14 -11 -20 0 -34 13 -15 12 -15 -8 -5
-12 7 -28 12 -35 11 -7 0 -4 -4 6 -8 22 -8 30 -37 14 -48 -7 -3 -8 -1 -4 5 5
8 2 10 -8 6 -19 -7 -21 -20 -4 -30 7 -4 8 -3 4 4 -5 8 -1 10 9 6 14 -6 14 -9
-3 -25 -13 -12 -18 -27 -16 -49 2 -20 0 -29 -7 -24 -8 5 -8 1 0 -13 6 -11 7
-23 4 -27 -3 -3 -1 -6 7 -6 10 0 10 -4 -1 -17 -12 -15 -12 -16 6 -10 20 7 20
7 1 -8 -11 -8 -14 -15 -8 -15 7 0 12 -5 12 -11 0 -5 -4 -8 -9 -5 -4 3 -7 -9
-6 -27 1 -18 -2 -37 -7 -43 -5 -7 -1 -17 9 -25 15 -12 16 -12 8 1 -5 9 -5 12
1 7 5 -5 9 -12 9 -15 0 -4 4 -13 9 -21 5 -8 -2 -6 -20 5 l-29 18 20 -24 c11
-13 14 -20 7 -16 -17 10 -15 -2 3 -20 15 -15 10 -44 -7 -44 -7 0 -6 5 1 14 9
10 8 15 -2 19 -9 3 -13 -2 -12 -16 1 -11 7 -23 13 -25 7 -2 12 -8 12 -13 0 -6
-6 -7 -12 -3 -7 4 -10 4 -6 -1 4 -4 2 -15 -5 -24 -11 -14 -10 -15 7 -1 18 14
19 13 13 -3 -4 -10 -7 -21 -7 -23 0 -3 -4 -2 -10 1 -6 3 -7 -1 -4 -9 3 -9 10
-16 15 -16 4 0 13 -10 19 -22 10 -21 10 -21 -3 -5 -19 23 -30 22 -17 -3 7 -14
7 -20 0 -20 -5 0 -10 5 -10 12 0 6 -3 9 -6 6 -3 -4 0 -16 6 -28 10 -18 14 -20
22 -9 8 12 9 11 5 -1 -2 -8 -11 -15 -19 -14 -17 1 -21 -35 -6 -53 8 -11 7 -12
-7 -7 -15 6 -16 4 -5 -17 13 -23 12 -24 -7 -6 -16 14 -20 14 -20 2 0 -8 5 -11
10 -8 6 4 8 0 4 -10 -3 -9 -1 -19 5 -23 7 -4 6 -9 -3 -15 -11 -7 -10 -9 4 -9
10 0 15 -5 12 -10 -4 -6 -10 -8 -14 -6 -4 3 -7 -17 -5 -44 1 -33 -2 -50 -9
-50 -7 0 -6 -4 2 -9 12 -8 12 -12 2 -25 -11 -13 -11 -16 2 -16 18 0 13 -28 -7
-43 -7 -6 -4 -7 6 -3 10 3 20 1 23 -4 4 -6 -4 -10 -17 -11 -13 0 -17 -3 -11
-6 7 -2 13 -11 13 -19 0 -10 -5 -12 -12 -8 -9 5 -9 2 1 -9 9 -12 10 -17 2 -17
-7 0 -9 -5 -5 -11 4 -8 9 -7 15 2 4 7 5 17 3 21 -3 4 0 8 6 8 7 0 9 -7 6 -15
-3 -8 -9 -22 -13 -32 -4 -10 -2 -14 4 -10 5 3 10 0 10 -7 0 -8 -6 -12 -14 -9
-9 4 -11 0 -7 -11 3 -9 10 -14 14 -11 5 3 7 -2 6 -11 -1 -8 -9 -20 -17 -25 -8
-5 -9 -9 -4 -9 6 0 11 -9 11 -20 0 -11 -5 -20 -10 -20 -6 0 -5 -5 2 -12 9 -9
7 -14 -6 -25 -14 -11 -14 -12 -1 -8 13 5 15 0 11 -24 -2 -18 -9 -28 -15 -24
-6 3 -7 1 -3 -5 4 -6 13 -9 20 -6 15 6 16 -33 1 -71 l-8 -20 17 20 c14 18 15
18 10 1 -4 -11 -1 -22 7 -27 9 -6 10 -9 2 -9 -6 0 -11 -9 -10 -20 1 -14 6 -18
19 -14 10 3 18 0 18 -6 0 -6 -4 -8 -10 -5 -5 3 -10 1 -10 -5 0 -6 -4 -9 -8 -6
-5 3 -9 -1 -9 -9 0 -8 4 -12 8 -10 12 8 18 -22 6 -34 -6 -6 -7 -11 -3 -11 5 0
3 -6 -3 -14 -10 -12 -6 -14 20 -12 24 2 28 0 17 -8 -15 -11 -13 -40 2 -31 5 3
7 -3 5 -12 -1 -10 3 -24 9 -32 9 -12 8 -12 -9 -4 -18 10 -20 8 -20 -22 0 -19
4 -37 8 -41 4 -4 1 -14 -5 -23 -10 -13 -10 -14 2 -3 8 6 21 12 29 12 11 0 11
-3 -4 -13 -11 -9 -14 -16 -7 -21 6 -3 9 -20 7 -36 -2 -17 1 -30 6 -30 6 0 7 4
4 10 -4 6 1 7 11 3 11 -4 13 -8 6 -11 -7 -2 -12 -8 -12 -13 0 -6 5 -7 11 -3 8
4 8 0 0 -15 -7 -11 -9 -21 -5 -21 3 0 1 -7 -6 -15 -10 -12 -9 -15 5 -15 10 0
16 -3 13 -6 -4 -3 -3 -18 2 -33 4 -16 3 -36 -3 -47 -9 -16 -8 -17 5 -6 13 10
17 10 21 -2 7 -18 -8 -30 -25 -20 -10 6 -10 5 -1 -8 7 -8 10 -18 6 -21 -3 -4
0 -7 7 -7 7 0 10 -3 7 -7 -4 -3 -2 -12 5 -20 8 -11 7 -12 -5 -7 -11 4 -14 0
-12 -13 2 -10 4 -22 4 -26 1 -5 7 -5 14 -1 8 5 8 2 -2 -9 -7 -9 -10 -17 -5
-17 5 0 3 -4 -4 -9 -11 -7 -10 -9 3 -14 9 -4 13 -3 10 3 -3 6 -1 10 6 10 6 0
9 -8 6 -19 -3 -13 1 -21 11 -23 14 -3 13 -5 -2 -20 -10 -10 -13 -18 -7 -18 6
0 8 -7 4 -16 -5 -13 -1 -15 18 -10 13 3 18 3 11 0 -15 -7 -16 -34 0 -34 6 0 8
-3 4 -7 -4 -5 -14 1 -22 11 -12 17 -16 18 -27 6 -6 -7 -7 -10 -2 -7 6 3 24 -6
40 -20 17 -14 22 -23 13 -19 -10 3 -18 1 -18 -4 0 -6 5 -10 10 -10 6 0 9 -3 9
-7 -4 -22 2 -33 14 -27 9 5 9 4 0 -6 -10 -11 -15 -11 -30 1 -17 13 -17 13 0
-7 9 -11 14 -24 10 -28 -4 -4 0 -4 9 -1 17 7 34 -10 20 -19 -14 -8 -5 -84 12
-101 20 -21 20 -24 -1 -49 l-18 -21 23 19 23 20 -6 -42 c-3 -26 -1 -42 6 -42
5 0 7 5 4 10 -3 6 -1 10 4 10 15 0 14 -13 -1 -29 -10 -11 -10 -13 0 -7 8 5 12
0 12 -14 0 -13 -4 -19 -12 -14 -7 4 -8 3 -4 -4 4 -6 14 -8 23 -5 12 5 14 3 8
-7 -6 -10 -4 -12 9 -7 11 4 15 3 11 -4 -4 -6 -13 -8 -21 -5 -8 3 -14 1 -14 -4
0 -6 5 -10 10 -10 7 0 7 -7 -1 -21 -8 -15 -8 -19 0 -15 6 4 11 2 11 -4 0 -6 4
-8 10 -5 14 9 12 -18 -2 -34 -10 -11 -10 -13 -1 -7 11 6 16 -10 12 -40 0 -4 4
-10 11 -14 6 -4 12 -23 13 -42 1 -20 5 -34 10 -31 4 2 5 9 2 14 -4 5 -2 9 4 9
16 0 22 -18 9 -23 -10 -4 -9 -8 2 -17 12 -9 10 -10 -10 -5 -23 5 -23 5 -7 -8
20 -16 23 -32 5 -21 -7 4 -10 4 -6 -1 4 -4 2 -15 -5 -24 -10 -14 -10 -14 4 -3
14 10 20 10 33 -3 18 -18 21 -29 6 -20 -5 3 -10 1 -10 -4 0 -6 6 -11 13 -11 8
0 7 -4 -3 -10 -8 -5 -10 -10 -5 -10 6 0 3 -5 -5 -10 -12 -7 -12 -10 -1 -10 8
0 11 -6 7 -16 -3 -8 -2 -12 4 -9 6 3 10 1 10 -4 0 -6 5 -11 10 -11 6 0 3 11
-5 24 -11 17 -13 26 -5 31 6 4 14 4 17 1 4 -3 1 -6 -6 -6 -10 0 -9 -6 2 -24 9
-13 13 -27 10 -30 -13 -12 -9 -54 4 -49 7 3 13 0 13 -6 0 -6 -5 -11 -11 -11
-6 0 -3 -7 5 -16 9 -8 14 -20 11 -25 -4 -5 -1 -9 5 -9 7 0 8 -6 1 -19 -8 -14
-7 -20 4 -24 9 -4 12 -1 8 9 -3 7 -1 14 5 14 11 0 11 -18 -1 -37 -6 -9 -3 -11
8 -7 11 4 14 2 9 -9 -8 -21 14 -59 29 -50 7 4 5 -2 -3 -12 -8 -10 -10 -16 -4
-12 19 11 24 -21 7 -39 -16 -16 -16 -16 3 -10 14 4 20 1 20 -12 1 -9 5 -26 9
-36 6 -15 5 -17 -5 -11 -9 5 -11 4 -6 -4 4 -6 11 -9 15 -7 4 3 12 -4 19 -15 7
-11 8 -19 2 -19 -5 0 -10 5 -10 10 0 6 -4 10 -8 10 -5 0 -9 -7 -9 -15 0 -8 5
-11 10 -8 6 4 8 -1 4 -11 -4 -10 -3 -15 3 -11 5 3 12 -6 16 -20 3 -14 10 -25
15 -25 6 0 5 10 -1 22 -10 21 -10 22 3 5 8 -10 12 -27 10 -38 -5 -16 -8 -18
-14 -7 -5 7 -9 8 -9 3 0 -14 21 -35 35 -35 5 0 3 5 -5 10 -9 6 -10 10 -3 10
20 0 24 -17 9 -33 -8 -8 -12 -17 -9 -20 3 -4 13 2 22 11 9 10 12 12 8 5 -5 -6
-5 -18 -1 -24 4 -8 3 -9 -4 -5 -7 4 -12 2 -12 -3 0 -6 7 -11 15 -11 8 0 15 -5
15 -11 0 -5 -4 -8 -9 -4 -5 3 -13 1 -16 -5 -4 -6 -1 -9 7 -8 7 2 12 -3 10 -9
-1 -7 2 -13 8 -13 5 0 7 -6 4 -14 -3 -8 0 -17 7 -22 7 -4 10 -3 5 4 -3 6 -2
13 2 16 5 3 9 -5 8 -17 -1 -12 5 -33 14 -47 9 -15 10 -21 3 -17 -9 6 -11 3 -6
-9 5 -13 3 -15 -7 -9 -9 5 -11 4 -6 -4 4 -6 12 -9 17 -6 5 4 12 0 15 -9 3 -9
13 -12 22 -9 13 4 13 2 -2 -9 -15 -12 -16 -17 -6 -23 9 -6 11 -4 5 5 -6 9 -4
11 4 5 9 -5 10 -10 2 -18 -6 -6 -11 -16 -11 -21 0 -7 3 -7 8 0 5 9 11 8 20 -2
7 -8 9 -14 3 -14 -5 0 -12 -7 -15 -16 -5 -14 -4 -15 9 -4 14 12 17 8 14 -16 0
-4 5 -11 13 -16 10 -8 10 -11 0 -15 -17 -7 -5 -23 19 -23 10 0 19 -5 19 -11 0
-6 -7 -8 -16 -5 -8 3 -12 2 -9 -4 3 -6 13 -10 21 -10 8 0 14 -6 14 -14 0 -8 6
-16 14 -19 9 -4 12 -14 9 -28 -5 -17 -3 -20 8 -14 11 7 11 5 -1 -10 -10 -13
-11 -16 -2 -11 9 6 12 3 10 -10 -2 -11 2 -18 10 -17 6 2 12 -3 12 -10 0 -7 -6
-19 -12 -26 -11 -10 -10 -12 2 -9 8 2 14 -3 12 -11 -2 -8 3 -11 12 -8 19 7 34
-32 16 -43 -8 -5 -7 -9 5 -13 9 -4 14 -3 11 1 -3 5 1 9 8 9 8 0 11 -9 8 -24
-2 -13 1 -23 7 -23 6 0 11 -7 11 -16 0 -9 5 -12 12 -8 10 5 10 4 1 -6 -10 -11
-9 -16 5 -27 12 -10 12 -12 2 -8 -8 4 -7 0 4 -9 11 -9 17 -23 14 -34 -4 -15
-1 -18 19 -16 18 2 21 -1 14 -10 -6 -7 -6 -17 -1 -26 5 -8 5 -19 0 -25 -7 -8
-5 -12 5 -12 8 0 11 5 8 10 -3 6 -1 7 6 3 9 -6 9 -11 -1 -24 -8 -10 -9 -13 -1
-9 6 4 14 3 18 -3 3 -5 1 -10 -4 -10 -6 0 -11 -5 -11 -11 0 -7 10 -5 25 5 21
14 24 14 19 1 -4 -8 -10 -15 -16 -15 -5 0 -6 -4 -3 -10 3 -5 1 -10 -6 -10 -7
0 -9 -3 -6 -6 4 -4 15 -1 24 7 10 7 15 10 11 5 -4 -5 -1 -18 7 -30 14 -19 13
-22 -7 -39 l-23 -18 24 11 c21 11 23 10 18 -3 -4 -11 -2 -14 8 -11 17 7 56
-52 48 -72 -4 -10 0 -12 13 -7 16 6 17 4 7 -9 -13 -15 -8 -28 11 -28 6 0 4 5
-4 11 -13 9 -13 10 0 6 16 -5 16 -8 5 -42 -6 -18 -5 -18 5 -2 6 9 16 17 23 17
8 0 8 -3 -1 -9 -19 -12 -19 -16 1 -38 9 -11 16 -22 15 -24 -2 -2 3 2 10 10 15
18 16 7 2 -19 -7 -13 -7 -21 2 -26 7 -4 8 -3 4 4 -4 7 -2 12 3 12 6 0 11 -7
11 -15 0 -26 1 -30 16 -46 8 -9 11 -19 7 -23 -5 -4 -1 -6 7 -4 10 2 14 -3 12
-17 -3 -16 -1 -18 9 -7 7 6 18 12 24 12 5 0 3 -5 -5 -10 -10 -6 -11 -10 -2
-10 6 0 12 -7 12 -16 0 -9 5 -12 12 -8 9 6 9 3 0 -9 -12 -14 -11 -16 7 -12 12
2 21 0 21 -6 0 -5 -8 -9 -17 -10 -14 0 -13 -2 4 -9 16 -7 21 -14 16 -26 -4
-12 -3 -15 5 -10 7 4 12 2 12 -4 0 -6 4 -9 10 -5 5 3 16 -7 24 -23 13 -26 13
-31 -2 -47 -15 -17 -15 -18 0 -6 11 8 18 9 23 1 3 -6 11 -7 17 -4 6 4 6 -1 -1
-14 -15 -28 -14 -37 2 -23 14 11 37 -3 37 -23 0 -5 -6 -2 -13 8 -12 16 -13 16
-13 -3 0 -11 4 -17 8 -15 4 3 8 0 8 -6 0 -6 4 -8 10 -5 5 3 10 -3 10 -14 0
-12 5 -21 10 -21 6 0 10 -9 10 -19 0 -11 5 -23 10 -26 6 -4 8 -11 5 -16 -4 -5
2 -6 11 -2 13 5 16 3 11 -10 -8 -22 19 -43 37 -28 11 9 16 9 22 0 4 -7 3 -9
-3 -6 -6 4 -17 0 -24 -9 -10 -12 -10 -15 2 -12 8 2 13 -3 12 -9 -2 -7 4 -13
13 -13 8 0 12 5 9 10 -3 6 -2 10 3 10 15 0 21 -37 8 -51 -8 -9 -8 -10 2 -5 7
4 15 1 18 -8 3 -9 11 -16 17 -16 7 0 7 4 -1 12 -15 15 -16 28 -2 28 5 0 9 -6
7 -12 -1 -7 5 -12 13 -10 12 3 13 1 2 -9 -17 -19 -15 -29 7 -29 11 0 22 -4 25
-9 3 -4 -7 -7 -22 -5 -15 2 -20 1 -10 -2 19 -6 33 -34 16 -34 -6 0 -8 -3 -5
-6 4 -4 14 -1 24 7 11 9 14 10 9 2 -7 -12 5 -18 27 -14 5 1 6 -3 3 -8 -3 -5 1
-14 9 -21 10 -8 14 -24 11 -41 -2 -16 -1 -27 2 -26 4 1 17 -6 30 -15 17 -11
20 -17 10 -21 -7 -3 -3 -6 10 -6 12 -1 22 -6 22 -12 0 -5 -4 -7 -10 -4 -6 3
-7 -1 -4 -9 3 -9 10 -16 16 -16 5 0 6 6 2 12 -5 10 -3 10 7 0 12 -11 12 -14
-1 -22 -9 -6 -10 -10 -3 -10 6 0 15 5 18 10 3 6 14 10 23 9 14 0 15 -2 2 -7
-20 -9 -24 -33 -5 -26 18 7 20 -7 2 -26 -10 -12 -9 -12 7 0 24 19 43 21 43 4
0 -10 -4 -11 -14 -2 -11 8 -12 7 -7 -6 3 -9 10 -17 15 -17 5 -1 15 -2 22 -3 6
0 12 -6 12 -13 0 -7 5 -17 12 -24 6 -6 9 -18 6 -27 -5 -11 -3 -13 8 -7 12 8
12 6 0 -9 -13 -15 -11 -16 20 -11 19 3 30 2 24 -2 -12 -10 -13 -38 -2 -50 8
-8 12 -9 38 -12 8 -1 7 -7 -2 -18 -13 -15 -12 -15 9 -4 23 12 26 9 23 -21 -2
-13 5 -18 24 -18 21 0 27 -6 32 -31 4 -22 8 -27 14 -17 7 10 9 11 9 0 0 -8 5
-10 13 -6 9 6 9 5 0 -8 -18 -21 16 -55 36 -35 10 9 11 9 6 -4 -6 -17 18 -49
36 -49 6 0 8 -4 4 -9 -3 -5 0 -13 6 -17 8 -4 9 -3 5 4 -4 7 -2 12 3 12 6 0 11
-6 11 -12 0 -9 4 -8 10 2 5 8 10 10 10 5 0 -6 -6 -17 -13 -24 -10 -11 -9 -12
2 -6 11 6 13 4 7 -11 -6 -15 -5 -17 5 -7 18 18 34 16 19 -2 -10 -12 -9 -16 5
-21 13 -5 14 -9 3 -15 -9 -6 -9 -9 -1 -9 20 0 24 18 6 29 -16 9 -16 10 3 8 17
-1 21 -7 19 -26 -3 -24 -2 -24 12 -6 15 20 15 20 9 -1 -5 -17 1 -26 29 -43 20
-12 40 -19 43 -17 4 2 8 -6 8 -19 l2 -24 -22 26 c-17 19 -23 22 -23 10 0 -9 4
-14 8 -11 4 2 13 -4 19 -15 6 -12 16 -18 25 -15 8 4 15 1 15 -6 0 -6 5 -8 13
-4 7 5 6 0 -3 -11 -9 -11 -10 -16 -2 -11 7 4 12 2 12 -4 0 -6 5 -8 10 -5 6 3
10 2 10 -4 0 -5 9 -13 21 -16 15 -5 17 -10 9 -20 -13 -16 5 -31 35 -28 11 2
14 0 8 -3 -14 -6 -18 -25 -5 -23 25 4 34 -2 23 -15 -9 -11 -9 -16 0 -22 7 -4
9 -3 6 3 -4 6 0 14 8 17 9 3 18 -1 22 -10 3 -9 15 -20 27 -24 16 -7 17 -9 4
-9 -9 -1 -24 9 -32 21 -9 12 -16 17 -16 11 0 -6 7 -16 15 -23 8 -7 13 -16 10
-20 -2 -4 7 -6 21 -4 22 2 24 0 12 -14 -7 -9 -8 -14 -4 -10 5 4 15 0 22 -10
11 -14 16 -15 33 -5 13 8 22 9 26 3 4 -6 1 -9 -6 -8 -6 2 -14 -3 -16 -10 -3
-7 1 -13 8 -11 30 4 47 -2 53 -17 5 -14 4 -15 -9 -4 -10 8 -15 9 -15 1 0 -6 6
-12 13 -13 6 0 17 -2 22 -2 18 -3 35 -17 45 -39 11 -21 10 -21 -4 -3 -15 18
-15 18 -13 -1 0 -11 7 -20 14 -21 7 -1 20 -3 28 -4 13 -1 20 -25 16 -51 -1 -4
8 -2 18 5 11 7 17 16 14 22 -4 5 -1 6 6 2 9 -6 8 -13 -6 -29 -16 -19 -16 -20
-1 -8 15 11 19 11 24 -3 3 -9 14 -16 23 -16 14 0 14 2 1 10 -12 7 -10 9 7 7
21 -1 21 -2 5 -20 -13 -15 -14 -18 -2 -15 9 2 14 -4 14 -14 -1 -10 2 -15 8
-12 5 3 6 15 3 27 -4 16 -2 15 10 -6 9 -16 21 -25 27 -21 7 5 8 2 4 -5 -5 -7
-14 -10 -22 -7 -19 7 -18 4 8 -18 18 -15 20 -16 15 -2 -4 10 -1 16 7 16 21 0
27 -12 13 -28 -8 -11 -8 -14 0 -9 7 4 19 -2 29 -15 11 -15 14 -17 11 -6 -8 22
9 24 17 2 3 -9 12 -14 20 -11 20 8 28 -4 15 -20 -9 -10 -8 -13 0 -13 7 0 10
-4 7 -8 -5 -9 2 -11 48 -14 15 -1 22 -7 19 -15 -3 -7 -9 -13 -15 -13 -5 0 -6
6 -2 13 5 8 2 8 -9 -2 -23 -18 -22 -19 17 -17 19 1 32 -2 30 -6 -3 -5 0 -8 5
-8 6 0 11 -8 12 -17 0 -17 1 -17 7 -1 6 15 9 13 21 -13 9 -20 22 -32 42 -36
16 -3 29 -11 29 -19 0 -18 17 -27 26 -13 4 7 3 9 -3 6 -5 -3 -10 0 -10 8 0 13
3 13 17 0 9 -8 19 -12 23 -9 7 8 3 -18 -5 -32 -5 -7 4 -9 25 -6 18 3 29 1 25
-3 -9 -10 16 -35 35 -35 9 0 18 6 21 13 3 6 4 3 3 -8 -1 -11 4 -20 11 -21 6
-1 15 -3 20 -4 4 -1 11 -2 15 -1 4 1 10 -6 13 -14 3 -8 11 -12 18 -8 6 4 4 -2
-4 -12 -9 -11 -10 -16 -2 -11 11 6 16 -4 13 -26 -1 -11 30 -2 39 12 6 10 10 7
16 -14 5 -20 9 -24 15 -14 7 10 9 8 10 -7 1 -11 1 -23 0 -27 0 -4 6 -5 15 -1
8 3 22 -3 30 -13 9 -11 12 -12 8 -4 -6 12 -5 13 7 3 8 -6 17 -12 22 -12 4 -1
6 -4 5 -8 -2 -5 -7 -7 -11 -5 -5 1 -5 -3 -1 -9 5 -9 13 -5 26 10 20 26 24 21
8 -10 -8 -15 -8 -19 2 -17 7 2 12 -4 10 -12 -2 -8 0 -12 4 -8 4 4 14 2 22 -5
13 -9 14 -9 8 1 -4 7 -1 12 8 12 19 0 21 -11 4 -28 -7 -7 -9 -12 -4 -12 4 0
14 7 22 15 9 8 21 15 27 14 9 0 8 -2 0 -6 -7 -2 -13 -9 -13 -14 0 -6 5 -7 12
-3 8 5 9 2 5 -10 -4 -9 -3 -14 2 -11 5 3 13 1 16 -5 4 -6 14 -10 23 -9 33 3
42 -1 42 -18 0 -15 -2 -14 -16 3 -15 18 -15 17 -2 -6 9 -14 25 -25 39 -25 30
-2 70 -34 62 -49 -3 -6 0 -5 8 1 17 17 29 16 29 -1 0 -8 5 -18 12 -22 7 -5 9
-2 6 8 -4 8 0 15 8 15 7 0 16 -7 18 -14 3 -8 1 -11 -4 -8 -6 3 -10 1 -10 -4 0
-6 7 -11 15 -11 8 0 15 5 15 10 0 6 8 5 20 -2 11 -7 19 -19 17 -28 -1 -8 4
-15 11 -16 6 -1 17 -2 23 -3 5 0 7 -6 3 -13 -4 -7 -3 -8 5 -4 7 5 9 13 4 20
-4 7 -1 4 9 -6 18 -20 33 -24 22 -7 -3 6 7 4 24 -5 16 -8 31 -13 34 -11 2 2 5
-5 5 -17 1 -12 7 -26 14 -32 9 -8 10 -7 6 7 -5 12 -3 16 4 11 6 -4 15 0 20 7
6 10 10 6 15 -16 4 -21 12 -31 25 -32 12 -1 17 3 13 9 -4 7 -2 8 5 4 6 -4 8
-12 5 -18 -5 -8 -1 -9 10 -5 11 5 15 3 10 -5 -5 -7 0 -9 14 -6 21 6 27 -2 22
-27 -1 -5 7 -1 18 8 20 18 40 8 27 -13 -4 -6 6 -8 25 -6 25 3 28 1 19 -10 -9
-11 -8 -14 4 -14 8 0 18 6 20 13 3 6 6 2 6 -10 1 -17 -3 -21 -16 -17 -15 5
-15 4 -3 -5 11 -7 19 -6 32 6 10 9 21 13 25 10 3 -4 2 -7 -4 -7 -6 0 -13 -7
-17 -15 -4 -13 -2 -14 14 -5 15 8 25 8 38 0 16 -11 16 -11 0 -6 -10 3 -20 0
-24 -6 -4 -7 -3 -8 4 -4 7 4 12 2 12 -4 0 -6 11 -8 26 -6 16 3 27 0 31 -10 3
-8 12 -14 20 -14 8 0 23 -10 32 -22 14 -16 20 -18 26 -8 6 9 4 11 -5 5 -9 -6
-11 -4 -5 5 6 9 4 11 -5 5 -9 -5 -11 -4 -6 4 11 17 37 -6 29 -25 -4 -12 0 -13
23 -4 27 9 28 9 10 -5 -15 -11 -16 -15 -5 -15 8 0 19 4 25 10 7 7 22 -2 46
-24 26 -24 43 -33 57 -29 12 3 21 10 21 17 0 6 5 3 11 -7 6 -9 16 -14 22 -11
8 5 8 3 0 -7 -16 -16 -17 -29 -2 -29 5 0 7 5 4 10 -3 6 1 10 10 10 10 0 13 -5
9 -12 -5 -8 0 -7 11 2 17 14 18 13 12 -2 -3 -10 -1 -20 5 -24 7 -4 8 -3 4 4
-4 7 -2 12 3 12 6 0 11 -5 11 -11 0 -5 5 -7 10 -4 6 4 7 11 4 17 -4 6 3 5 15
-2 12 -6 25 -18 28 -25 4 -12 9 -12 26 -3 19 10 20 9 10 -4 -17 -20 -5 -30 20
-16 17 8 19 8 14 -5 -4 -12 -2 -14 10 -10 12 5 14 3 8 -7 -5 -9 -4 -11 4 -6 8
6 9 12 2 20 -8 9 -7 13 4 13 8 0 12 -4 9 -9 -3 -4 2 -8 10 -8 9 0 16 -5 16
-11 0 -5 -6 -7 -12 -3 -9 5 -8 2 1 -9 8 -10 16 -15 18 -13 3 3 16 1 30 -5 16
-6 22 -6 18 1 -3 6 -12 10 -20 10 -19 0 -28 17 -14 26 7 4 9 3 6 -3 -6 -10 27
-27 46 -24 4 1 21 -6 37 -14 22 -11 30 -12 34 -2 3 6 3 0 1 -15 -4 -32 -2 -34
18 -13 13 13 16 13 21 -1 3 -8 2 -12 -3 -9 -5 3 -12 1 -16 -4 -3 -6 4 -8 16
-6 13 3 28 0 36 -6 7 -6 19 -9 28 -6 8 4 17 2 21 -4 4 -6 12 -6 22 3 14 10 15
10 5 -2 -15 -16 -17 -34 -4 -25 5 3 12 1 16 -5 4 -6 10 -8 15 -5 5 3 12 -5 16
-17 6 -21 7 -21 18 -2 6 10 18 20 26 22 12 3 13 1 3 -9 -7 -7 -13 -18 -13 -24
0 -5 5 -3 10 5 8 13 13 13 31 2 11 -8 18 -9 14 -3 -3 6 1 11 10 11 10 0 13 -5
9 -11 -5 -8 1 -10 20 -7 24 5 31 -2 27 -24 0 -5 4 -8 9 -8 6 0 10 8 10 17 0
15 2 14 16 -3 8 -10 12 -12 8 -4 -7 13 -5 13 9 1 9 -7 17 -10 17 -5 0 4 7 -1
16 -12 15 -18 15 -18 10 0 -6 16 -4 17 9 6 12 -10 18 -10 33 1 9 7 14 10 10 5
-10 -12 23 -45 40 -38 11 4 13 2 7 -9 -8 -12 -6 -12 8 0 15 12 17 11 17 -5 0
-11 4 -15 8 -9 9 12 48 13 59 1 5 -5 2 -6 -6 -1 -10 6 -12 4 -7 -4 5 -7 12 -9
19 -3 13 10 46 12 45 3 -2 -18 3 -31 13 -31 5 0 7 5 4 10 -3 6 -1 10 5 10 6 0
8 5 4 12 -4 7 -3 8 4 4 6 -4 8 -14 5 -22 -5 -14 -3 -15 15 -5 32 17 39 12 13
-9 -13 -11 -19 -20 -14 -20 5 0 14 5 21 12 8 8 12 8 12 1 0 -6 7 -14 16 -17 8
-3 12 -2 9 3 -3 5 -1 12 5 16 5 3 10 0 10 -8 0 -18 27 -30 36 -16 4 6 13 4 24
-6 10 -9 23 -14 29 -11 5 3 12 0 15 -6 3 -7 3 -2 0 11 -4 16 -3 21 5 17 6 -4
11 -17 12 -29 0 -21 1 -21 9 -2 5 11 9 14 9 8 1 -7 6 -13 12 -13 5 0 7 5 3 11
-3 6 6 5 22 -3 16 -8 36 -14 44 -13 8 0 21 -6 28 -15 9 -10 11 -11 6 -1 -5 9
-3 12 5 7 6 -4 19 -2 28 6 12 9 15 9 9 1 -4 -8 -2 -13 4 -13 6 0 8 -6 4 -12
-4 -7 -4 -10 1 -6 4 4 15 2 24 -5 14 -11 14 -10 2 6 -15 20 -2 23 18 5 11 -10
13 -10 7 0 -4 6 -2 12 3 12 6 0 11 -5 11 -11 0 -5 4 -8 10 -4 5 3 6 13 3 23
-3 9 -4 15 -2 12 2 -3 13 -16 24 -30 20 -25 20 -25 0 -10 -19 14 -19 14 -6 -3
14 -18 16 -18 28 -1 7 10 13 13 13 7 0 -6 12 -18 26 -28 15 -9 24 -13 20 -7
-3 5 2 16 11 23 9 8 14 9 11 4 -4 -6 2 -17 13 -23 19 -12 19 -11 9 9 -12 21
-11 21 11 5 25 -17 40 -21 38 -8 -4 21 3 23 21 7 15 -14 17 -21 9 -32 -7 -8
-8 -13 -1 -13 5 0 12 7 16 15 3 9 12 12 22 8 13 -5 15 -3 9 7 -5 9 -4 11 4 6
16 -10 3 -29 -16 -22 -8 3 -12 2 -9 -3 3 -5 17 -8 31 -8 13 0 22 3 20 8 -3 4
-1 10 5 14 9 5 14 -7 11 -27 0 -4 6 -5 14 -2 8 4 13 10 10 14 -3 5 0 12 6 16
8 4 9 3 5 -4 -4 -7 -2 -12 4 -12 6 0 8 -5 4 -12 -4 -7 -3 -8 5 -4 6 4 9 11 6
16 -7 11 22 7 32 -5 4 -4 2 -5 -4 -1 -17 10 -16 1 1 -13 12 -10 14 -9 11 6 -4
28 14 46 33 31 8 -7 22 -13 31 -13 10 0 15 -7 13 -20 -2 -11 1 -16 5 -10 12
15 33 17 33 2 0 -7 4 -6 10 4 6 11 20 15 40 13 23 -3 29 0 24 9 -8 13 24 -10
39 -28 5 -6 7 0 4 12 -3 13 -1 23 4 23 5 0 9 -3 9 -8 0 -4 8 -12 18 -19 15 -9
19 -8 19 3 0 7 -4 11 -8 8 -4 -2 -11 1 -15 8 -4 7 -4 10 1 6 4 -4 14 -3 22 4
11 9 13 8 11 -1 -4 -18 32 -23 51 -8 12 9 13 9 7 -1 -5 -8 1 -12 20 -12 15 0
33 -8 41 -17 12 -15 14 -15 10 -2 -3 9 -1 22 4 30 6 10 9 11 10 2 1 -7 2 -19
3 -25 2 -17 29 -11 39 8 9 16 27 10 27 -9 0 -7 -4 -6 -10 3 -5 8 -10 11 -10 5
0 -5 4 -16 9 -24 7 -11 10 -9 16 8 3 12 10 19 15 16 5 -3 10 0 12 7 3 7 7 5
11 -6 4 -9 3 -15 -2 -11 -5 3 -13 0 -17 -6 -4 -7 -3 -9 4 -5 6 3 13 2 17 -4 4
-7 13 -7 26 0 10 6 25 10 32 9 26 -3 48 1 43 9 -3 5 1 9 10 9 10 0 13 -7 9
-21 -5 -19 -5 -19 5 -3 9 13 15 15 31 7 22 -12 25 -1 7 20 -11 12 -10 12 2 4
13 -8 36 -10 88 -5 7 1 10 6 6 13 -4 6 3 4 17 -5 26 -19 43 -22 34 -7 -3 6 1
7 9 4 15 -6 20 -18 17 -37 -1 -5 3 -6 9 -2 6 4 10 12 9 18 -1 7 -1 19 0 27 1
13 2 13 11 0 5 -8 15 -15 22 -16 34 -3 39 -5 34 -12 -3 -5 9 -8 27 -7 18 1 38
-3 46 -9 11 -8 13 -8 7 2 -5 8 2 12 23 13 30 1 48 4 54 9 6 5 46 6 42 0 -2 -3
12 -10 30 -16 19 -6 32 -7 29 -2 -3 4 4 8 15 8 11 0 23 -5 26 -10 4 -7 11 -7
18 -2 7 5 31 8 55 7 23 -2 42 2 42 7 0 5 -5 6 -10 3 -6 -3 -10 -2 -10 3 0 20
14 20 31 -1 17 -19 18 -19 12 -3 -5 15 -3 18 10 13 9 -3 17 -2 17 3 0 6 9 6
25 0 15 -6 26 -6 30 1 4 5 10 7 15 4 4 -3 15 -2 24 1 14 5 14 9 4 23 -12 14
-11 15 5 2 10 -8 16 -20 13 -27 -3 -8 0 -11 9 -8 8 3 13 11 11 17 -1 7 -1 9 1
4 3 -4 10 -4 16 0 6 4 8 0 4 -9 -5 -13 -1 -14 28 -5 20 6 32 15 28 21 -4 7 -2
8 5 1 5 -5 12 -19 15 -30 4 -17 5 -16 6 4 l1 24 21 -24 c19 -22 21 -22 17 -4
-1 11 -7 24 -13 28 -6 5 -5 7 3 5 8 -2 13 -8 13 -13 0 -6 10 -14 22 -19 33
-13 48 -15 41 -5 -3 5 2 9 11 9 9 0 14 -4 11 -8 -3 -5 1 -9 9 -9 8 0 12 4 10
8 -9 13 24 18 37 5 11 -11 16 -11 26 1 11 11 18 11 42 -2 21 -11 31 -12 36 -3
4 6 3 8 -4 4 -6 -3 -13 -2 -16 3 -4 5 -2 12 3 15 5 4 12 2 15 -3 4 -5 14 -8
24 -6 9 1 25 -2 36 -7 12 -7 16 -7 12 0 -3 6 -1 14 5 18 7 4 9 3 5 -4 -4 -6 1
-11 11 -11 16 -1 67 -7 85 -10 5 0 7 -6 5 -12 -1 -6 9 -13 23 -15 18 -3 21 -2
10 5 -8 5 -18 7 -22 5 -15 -9 -8 3 9 17 11 10 14 10 9 2 -5 -9 0 -13 14 -13
13 0 19 4 14 12 -4 7 -3 8 4 4 6 -4 9 -13 5 -21 -6 -18 13 -20 23 -3 4 7 3 8
-4 4 -8 -5 -10 -2 -6 8 6 16 25 23 23 9 -5 -29 18 -40 38 -18 4 4 3 5 -4 1 -6
-3 -14 -2 -17 3 -10 15 25 6 36 -10 7 -11 8 -8 5 9 -3 13 -3 21 0 18 4 -3 13
0 21 7 11 8 14 8 9 0 -4 -6 -3 -14 2 -17 5 -3 11 2 13 12 5 18 38 27 38 10 0
-4 5 -8 11 -8 5 0 8 4 5 8 -2 4 4 9 15 9 11 1 17 -2 14 -6 -2 -5 2 -14 10 -21
12 -10 14 -8 10 9 -4 24 10 37 21 20 5 -8 3 -9 -7 -4 -8 5 -11 4 -6 0 4 -5 18
-10 30 -12 17 -2 19 -1 7 7 -8 5 -10 10 -4 10 16 0 35 -25 26 -35 -4 -5 -1 -5
6 -1 7 4 9 12 6 18 -5 7 0 9 14 6 14 -4 19 -2 16 7 -4 8 3 11 21 10 22 -3 25
0 20 18 -5 17 -4 18 4 8 14 -21 41 -22 41 -3 1 12 5 10 16 -8 8 -14 13 -17 10
-7 -4 13 -2 16 7 10 15 -10 48 -5 66 10 12 10 13 9 7 -3 -5 -10 -3 -10 6 2 11
13 18 14 33 5 18 -9 18 -9 7 5 -10 13 -10 18 -1 24 8 4 9 3 5 -4 -7 -11 -2
-14 27 -15 22 -1 47 15 41 27 -3 6 4 0 15 -13 16 -17 21 -19 21 -8 0 9 5 19
12 23 8 5 9 2 4 -12 -4 -10 -4 -15 0 -11 4 4 14 1 22 -6 13 -10 14 -9 3 11 -7
14 -8 22 -1 22 5 0 10 -4 10 -8 0 -4 8 -8 18 -8 10 0 19 6 19 12 0 7 -6 10
-13 7 -6 -2 -14 -1 -17 4 -3 4 8 8 23 8 16 1 27 -2 24 -7 -2 -4 8 -6 23 -4 16
1 35 -2 43 -8 13 -10 13 -9 1 6 -7 10 -18 15 -24 11 -6 -3 -7 -1 -3 5 5 9 13
9 29 0 19 -10 20 -9 10 3 -10 12 -8 15 8 16 11 1 17 -2 14 -8 -8 -12 6 -11 25
1 9 5 19 5 26 -1 8 -7 18 -2 33 17 19 24 26 24 22 1 -1 -5 3 -6 9 -2 6 3 9 9
7 13 -2 4 4 15 15 25 19 18 26 9 7 -10 -8 -8 -7 -13 2 -18 7 -5 10 -4 6 2 -4
6 0 14 9 17 22 8 24 8 20 -6 -1 -7 -1 -10 1 -5 3 4 9 5 13 2 5 -3 12 0 16 6 4
7 3 10 -2 7 -5 -3 -15 1 -23 9 -12 13 -11 14 9 8 17 -5 21 -4 16 6 -4 8 0 5 8
-5 12 -14 16 -16 16 -5 0 8 10 14 24 14 13 0 22 -3 20 -7 -2 -4 0 -10 6 -13 6
-4 10 -3 9 2 -3 19 2 33 12 33 5 0 8 -4 4 -9 -3 -5 0 -13 7 -17 7 -4 10 -4 6
1 -4 4 0 14 10 22 9 8 12 12 5 9 -6 -4 -14 -2 -17 3 -3 4 4 8 17 7 14 -1 21 4
19 13 -3 12 0 12 12 1 13 -10 19 -10 33 1 9 8 14 9 11 4 -4 -6 2 -17 13 -23
18 -12 19 -11 10 6 -7 14 -7 19 4 19 8 0 12 -3 10 -7 -2 -4 2 -7 10 -7 8 0 12
4 9 9 -3 4 0 8 6 8 6 0 8 5 4 11 -3 6 5 4 19 -6 25 -16 25 -16 20 6 -6 20 -5
21 9 8 9 -7 14 -17 11 -21 -2 -5 -2 -8 1 -8 3 0 10 9 16 20 9 16 8 19 -7 14
-17 -5 -17 -5 0 6 22 14 42 4 28 -14 -8 -9 -7 -13 3 -13 8 0 13 8 11 18 -3 14
20 34 34 29 2 -1 8 4 12 12 6 9 9 6 10 -12 0 -14 3 -19 6 -12 2 6 10 9 16 5 8
-5 8 -2 0 8 -10 13 -10 15 5 14 9 0 24 -5 31 -10 9 -5 12 -4 7 3 -3 6 3 14 15
17 14 5 19 12 15 23 -4 10 3 6 14 -8 11 -14 18 -18 15 -10 -6 18 11 47 22 37
4 -5 2 -12 -6 -16 -10 -6 -9 -10 4 -14 11 -5 14 -3 9 5 -5 8 -2 9 11 4 16 -6
16 -4 4 10 -13 16 -12 16 11 4 22 -12 24 -11 13 2 -13 15 -8 28 11 28 6 0 5
-4 -2 -9 -11 -7 -11 -9 2 -14 9 -4 16 -2 16 4 0 6 4 8 9 5 14 -9 21 20 8 35
-9 9 -7 9 6 -1 11 -8 21 -10 25 -4 4 5 16 10 27 12 13 1 7 -5 -15 -17 -41 -24
-33 -28 10 -6 30 16 40 35 18 35 -6 0 -8 3 -4 7 4 5 14 -1 22 -11 13 -18 19
-12 15 16 0 4 7 4 16 1 11 -4 13 -8 5 -11 -7 -2 -12 -8 -12 -14 0 -7 4 -7 13
1 10 8 17 7 27 -2 7 -6 4 2 -6 18 -17 27 -17 28 -1 16 15 -12 17 -11 18 5 0
18 1 18 8 0 7 -18 8 -18 14 -2 6 14 14 17 35 11 26 -6 26 -6 7 10 -20 16 -20
16 4 9 18 -5 22 -3 15 7 -5 9 1 8 18 -3 23 -15 28 -15 38 -3 7 8 9 15 4 15 -5
0 11 12 35 25 24 14 46 23 49 21 2 -3 14 0 26 6 20 11 20 10 6 -8 -14 -18 -14
-18 3 -5 10 8 15 21 12 30 -3 11 0 10 10 -3 13 -17 18 -16 17 4 0 5 36 11 84
14 21 0 30 5 27 13 -3 7 -10 10 -17 6 -6 -3 -8 -2 -3 2 12 14 49 17 41 3 -4
-7 -3 -8 5 -4 9 6 9 11 -1 24 -12 14 -10 14 11 2 20 -10 23 -10 19 2 -4 9 1
14 13 15 12 1 16 -3 13 -15 -5 -16 -5 -16 6 0 6 11 17 15 28 11 9 -3 14 -3 10
1 -3 4 -13 9 -22 10 -9 1 -15 6 -14 12 2 5 7 7 13 6 27 -10 45 -10 50 -1 4 5
11 7 16 4 5 -4 9 4 9 16 0 12 3 19 7 16 3 -4 12 1 20 11 12 14 14 14 10 1 -3
-9 1 -16 8 -16 7 0 12 8 10 18 -2 10 1 21 6 25 5 3 9 2 8 -3 -4 -25 3 -36 11
-16 6 13 18 23 30 23 11 0 20 5 20 12 0 6 7 3 15 -8 15 -18 15 -18 8 0 -5 15
-3 17 8 12 8 -4 5 0 -6 10 -16 14 -17 16 -2 10 9 -3 25 -9 35 -12 14 -5 13 -4
-3 10 -13 10 -14 14 -4 11 8 -3 28 1 43 9 16 8 37 13 47 11 11 -2 17 0 14 6
-4 5 -11 7 -16 4 -5 -4 -9 -2 -9 3 0 6 7 12 15 16 8 3 15 0 15 -6 0 -13 14 -1
16 13 1 5 2 12 3 15 0 4 12 -1 25 -10 23 -15 25 -15 21 4 -2 11 1 22 6 25 5 4
6 11 3 17 -4 7 -2 8 4 4 6 -4 9 -13 5 -21 -4 -11 -1 -13 11 -9 10 4 15 13 11
22 -5 13 -3 13 12 1 13 -11 15 -11 9 -1 -5 9 -3 13 5 11 29 -3 41 2 36 16 -9
21 11 29 30 13 12 -9 15 -9 9 -1 -4 7 -3 13 3 13 5 0 12 -6 15 -12 4 -7 4 -3
2 10 -3 15 0 20 7 15 20 -12 37 -12 34 0 -1 7 3 11 10 10 6 -1 16 3 22 11 8 9
7 13 -4 13 -8 0 -11 -5 -8 -11 3 -6 2 -8 -2 -3 -5 4 -17 -1 -27 -10 -17 -15
-18 -15 -13 -1 5 13 40 36 40 27 0 -1 10 3 22 10 20 10 22 9 17 -6 -5 -16 -4
-16 6 1 10 14 9 20 -1 28 -10 6 -7 7 10 3 16 -5 21 -4 17 4 -4 6 -2 11 3 11 6
0 11 -5 11 -10 0 -6 11 -3 25 6 21 14 23 19 13 32 -11 14 -10 14 7 5 15 -9 22
-8 31 5 9 13 9 19 -5 30 -12 11 -10 11 9 0 26 -15 54 -13 44 3 -3 5 4 9 16 9
14 0 20 5 18 18 -2 13 4 17 24 17 19 -1 25 4 23 17 -2 11 1 15 10 12 8 -3 11
-13 9 -22 -5 -14 -3 -14 6 1 6 10 9 26 5 35 -5 13 -2 13 15 -3 16 -15 23 -16
33 -6 9 10 8 11 -5 6 -13 -5 -18 -2 -18 10 0 11 5 15 15 11 9 -3 23 3 32 13 9
11 22 17 29 14 8 -3 14 2 14 11 0 13 4 15 19 7 16 -9 18 -8 14 9 -3 11 -10 17
-16 13 -6 -4 -7 -1 -2 6 5 9 10 10 18 2 6 -6 18 -11 26 -11 14 0 14 1 1 10
-13 8 -12 10 3 10 11 0 15 4 11 12 -4 7 -3 8 4 4 7 -4 12 0 13 11 0 10 3 13 6
6 2 -7 9 -13 15 -13 6 0 7 8 4 17 -4 10 -4 14 0 10 4 -4 14 2 22 14 8 11 20
18 26 16 15 -6 41 8 41 23 0 5 4 9 10 8 5 -2 9 -6 8 -10 -1 -3 4 -8 11 -11 10
-4 12 0 9 14 -3 11 0 19 6 19 7 0 9 -5 5 -12 -6 -10 -3 -9 8 0 9 8 15 19 12
27 -3 7 0 16 7 21 8 5 10 3 4 -7 -8 -12 -6 -12 8 -1 9 8 22 10 29 6 8 -5 8 -1
-2 11 -8 10 -10 16 -3 12 16 -10 43 2 43 19 0 8 5 14 11 14 5 0 7 6 3 13 -6 9
-5 9 8 -1 13 -10 18 -9 29 5 13 16 12 17 -3 4 -10 -7 -18 -9 -18 -3 0 13 29
24 43 15 7 -4 5 2 -3 12 -14 17 -14 18 10 5 23 -12 24 -12 11 4 -8 9 -10 16
-5 15 20 -3 35 1 30 10 -3 5 2 15 11 22 14 12 16 12 9 0 -6 -9 -5 -12 5 -9 8
3 13 11 11 18 -2 8 3 10 13 6 9 -3 13 -2 10 3 -3 5 -1 12 5 16 6 4 7 11 4 17
-4 5 4 4 17 -3 21 -11 23 -11 11 4 -11 13 -10 15 13 13 25 -3 25 -3 8 17 -18
19 -18 20 6 7 13 -6 21 -7 17 -2 -3 6 -2 13 4 17 5 3 10 1 10 -6 0 -7 6 -4 14
7 11 14 11 21 3 26 -7 4 -7 8 -2 9 10 1 28 4 55 10 8 2 21 12 28 22 7 9 18 14
24 11 6 -4 6 1 -1 14 -10 18 -9 20 9 17 11 -2 25 -7 31 -11 8 -4 7 0 0 15 -7
12 -8 21 -4 20 21 -3 24 2 12 19 -13 15 -12 16 4 3 10 -8 16 -20 13 -28 -4 -8
-1 -11 5 -7 6 3 8 15 6 26 -5 16 -3 17 11 6 13 -11 15 -11 9 5 -5 14 -2 16 18
13 15 -3 23 -1 20 5 -4 5 -11 7 -16 4 -14 -9 -10 8 7 30 13 16 15 17 12 3 -2
-9 2 -17 7 -17 6 0 9 7 7 16 -2 8 1 12 7 9 5 -4 13 -1 17 5 4 7 3 9 -4 5 -6
-4 -10 1 -9 13 1 15 4 17 14 9 10 -8 19 -4 37 15 13 14 21 29 17 33 -3 4 0 4
7 0 7 -4 10 -11 8 -15 -3 -4 1 -8 8 -8 8 0 11 8 8 19 -2 10 1 18 7 18 7 0 9
-5 5 -12 -4 -7 -3 -8 4 -4 6 4 9 13 5 21 -4 11 -1 13 11 9 12 -5 15 -2 10 9
-4 12 -1 15 16 12 16 -3 20 0 16 10 -3 8 -1 15 4 15 5 0 7 6 4 14 -3 8 8 20
30 30 20 9 36 21 36 27 0 6 4 8 9 4 10 -5 61 54 61 71 0 5 -5 2 -11 -6 -9 -13
-10 -13 -6 0 2 8 13 15 25 15 11 0 24 4 29 9 5 5 3 6 -4 2 -7 -4 -13 -2 -13 3
0 10 21 16 43 12 4 -1 3 8 -3 19 -9 16 -8 18 5 14 8 -4 15 -2 15 4 0 6 -6 13
-12 15 -7 3 0 4 16 4 18 -1 31 4 33 13 4 13 3 13 -7 0 -10 -13 -11 -13 -7 0 2
8 13 15 25 14 16 0 19 3 12 16 -6 12 -5 17 6 18 7 1 21 3 29 4 8 1 12 5 9 10
-3 5 -10 6 -15 3 -5 -4 -9 -1 -9 4 0 6 9 11 21 11 16 0 19 4 14 23 -3 12 -3
18 2 12 16 -19 30 -14 27 11 -1 13 2 22 7 18 5 -3 7 -9 4 -14 -3 -5 -1 -12 5
-15 6 -4 10 -3 9 2 -4 21 2 43 12 43 5 0 7 -4 4 -10 -3 -5 -1 -10 5 -10 6 0 9
10 6 23 -2 12 2 31 10 42 8 10 14 14 14 9 0 -6 -5 -15 -11 -21 -9 -9 -7 -12 9
-10 12 0 19 3 17 5 -2 2 11 17 28 34 18 16 26 27 20 23 -9 -4 -11 -1 -7 9 3 9
10 14 14 11 4 -3 13 2 20 10 7 8 16 12 21 9 5 -3 9 -2 8 3 -4 24 2 43 13 37 6
-4 8 -3 4 4 -3 6 -2 13 3 17 6 3 8 12 5 19 -3 8 0 17 7 22 8 5 10 3 4 -5 -6
-10 -3 -11 13 -2 15 8 20 18 16 38 -3 19 -2 24 5 14 7 -11 13 -11 32 4 l24 17
-25 -7 c-16 -4 -20 -3 -12 3 7 5 14 18 15 29 1 19 5 21 45 25 10 1 19 8 19 15
0 9 -5 9 -21 1 -19 -10 -20 -10 -7 5 7 10 19 17 27 17 7 0 16 5 20 12 4 6 3 8
-4 4 -6 -3 -14 -1 -18 5 -4 8 -3 9 4 5 7 -4 12 -2 12 4 0 6 5 8 10 5 6 -3 10
1 10 9 0 8 4 18 10 21 6 4 7 -1 3 -11 -4 -12 1 -11 20 7 28 24 38 41 12 19
-13 -11 -14 -10 -9 4 3 9 16 16 27 16 20 0 20 1 3 13 -16 12 -16 15 -3 26 12
9 17 9 23 0 5 -8 3 -10 -7 -4 -11 6 -12 5 -2 -5 19 -20 27 -5 12 22 -11 21
-11 22 4 10 14 -12 16 -11 12 8 -3 17 0 20 12 16 12 -5 13 -4 5 7 -15 18 -3
30 15 15 11 -8 17 -8 26 2 9 9 9 11 0 6 -6 -3 -15 -2 -18 4 -4 6 -3 10 2 9 4
-1 15 -1 23 0 13 1 13 3 1 10 -13 8 -13 12 -1 26 13 16 15 16 28 -2 13 -17 14
-16 7 6 -5 15 -4 21 3 17 6 -3 13 -2 17 3 3 6 -6 8 -22 5 l-28 -4 25 14 c14 8
24 18 23 23 -1 4 5 7 12 5 10 -2 13 3 9 13 -5 12 -2 14 12 8 16 -6 17 -4 7 9
-17 19 -4 32 15 15 13 -9 14 -9 8 1 -4 6 -2 12 3 12 6 0 11 5 11 11 0 5 -5 7
-12 3 -6 -4 -8 -3 -4 4 3 6 15 9 26 7 13 -3 17 1 13 11 -3 7 -10 11 -17 7 -7
-4 -7 -2 1 8 10 12 10 18 0 29 -10 12 -9 12 3 3 8 -5 22 -10 32 -10 13 0 14 5
8 23 -7 18 -6 22 5 18 8 -3 22 -1 32 6 16 10 16 10 -4 5 -18 -5 -22 -3 -17 9
3 8 13 13 22 10 9 -3 6 2 -8 10 l-25 16 26 -4 c20 -3 26 0 25 12 0 9 10 22 24
29 22 11 23 13 5 14 l-20 0 20 8 c11 5 25 6 30 3 6 -3 4 2 -4 11 -9 11 -10 17
-2 17 6 0 11 5 11 11 0 5 -6 7 -12 3 -9 -5 -8 -2 1 10 8 9 20 15 28 12 7 -3
13 1 13 10 0 9 -5 12 -12 8 -7 -4 -8 -3 -4 5 5 7 16 9 29 5 19 -6 19 -5 6 8
-8 8 -21 18 -29 21 -8 4 -3 5 13 2 15 -3 26 -2 25 2 -4 17 14 53 23 47 6 -3 9
2 7 11 -2 10 4 20 12 22 13 4 13 3 0 -7 -13 -10 -13 -11 0 -7 9 2 15 15 14 32
-1 27 0 27 12 10 16 -22 19 -12 4 15 -7 13 -6 21 5 30 8 7 15 9 15 5 0 -5 9 0
19 9 11 10 17 24 14 32 -4 10 0 12 13 8 17 -6 17 -5 -1 10 -11 10 -14 15 -7
11 6 -3 12 -1 12 5 0 6 5 8 12 4 7 -5 8 -3 2 7 -12 20 -14 40 -3 33 5 -3 7 -9
4 -14 -3 -4 2 -10 10 -13 11 -5 12 -1 4 20 -8 22 -7 24 5 14 11 -9 16 -9 22 0
4 8 3 9 -4 5 -8 -5 -11 1 -10 18 1 13 6 22 11 19 13 -8 36 17 30 34 -5 12 -2
14 8 9 8 -4 6 -1 -5 8 -18 14 -18 15 3 13 11 -1 21 -6 21 -11 0 -5 2 -7 5 -4
10 10 -7 38 -19 31 -6 -4 -5 1 3 10 14 18 26 23 16 8 -3 -5 -1 -12 4 -15 5 -3
8 7 7 24 -2 30 -2 30 23 13 21 -13 23 -13 14 -1 -7 8 -10 17 -7 21 3 3 0 16
-6 29 -10 19 -10 21 1 11 20 -19 28 -16 21 9 -4 16 -2 20 10 16 10 -4 14 1 14
16 -1 15 4 20 18 18 18 -3 18 -2 3 13 -14 13 -15 20 -5 38 7 12 11 25 10 29
-1 5 4 7 11 5 6 -1 13 5 13 13 1 8 3 20 4 25 1 6 2 13 1 17 0 4 7 4 17 1 15
-6 15 -3 -3 18 -11 13 -13 18 -5 12 14 -13 39 -19 27 -6 -4 3 1 11 10 18 13 9
13 14 3 20 -8 5 -11 4 -7 -2 3 -5 0 -10 -8 -10 -11 0 -12 4 -4 14 6 7 16 10
22 6 6 -4 8 0 4 10 -4 11 1 20 13 27 11 6 20 16 20 22 0 7 -4 7 -13 -1 -10 -8
-14 -7 -14 4 0 7 3 14 6 13 22 -2 41 4 41 12 0 5 -3 9 -8 7 -4 -1 -8 3 -9 8
-1 6 6 8 15 7 9 -2 14 -1 10 4 -4 4 5 18 20 32 16 15 20 23 10 19 -10 -3 -20
-2 -23 3 -4 6 1 10 10 10 9 0 13 5 10 10 -3 6 -1 10 5 10 7 0 9 7 6 17 -6 14
-3 14 15 -3 12 -10 19 -12 14 -5 -14 24 -12 61 5 74 13 10 13 10 2 -5 -10 -12
-10 -18 -1 -24 7 -4 9 -3 5 4 -3 6 -1 14 4 17 8 5 6 13 -5 25 -16 18 -16 18 4
13 13 -3 21 -1 21 6 0 7 -5 9 -12 5 -7 -5 -8 -3 -4 5 5 7 14 10 21 7 9 -3 12
2 10 14 -2 10 4 21 13 25 15 6 15 8 -3 22 -18 14 -18 15 -1 9 14 -5 17 -2 12
9 -4 11 -2 14 6 9 8 -5 9 -2 5 9 -4 10 0 20 11 26 9 6 13 11 8 11 -6 0 0 9 12
20 17 17 20 25 12 40 -15 27 -12 37 4 15 13 -19 14 -18 9 6 -3 19 1 28 19 37
20 10 20 11 2 7 -14 -4 -21 0 -21 9 0 9 6 12 16 8 14 -5 14 -4 2 11 -12 15
-12 17 1 12 11 -5 14 1 13 23 -1 18 3 29 11 29 7 0 10 -5 7 -11 -4 -6 1 -5 10
3 20 16 13 33 -10 24 -10 -4 -14 -2 -10 4 4 6 1 14 -5 17 -7 3 -2 3 11 0 17
-5 21 -3 16 7 -6 9 -3 11 10 5 15 -5 16 -4 5 9 -12 15 -4 21 23 16 5 -1 6 3 2
9 -3 6 -10 8 -14 6 -4 -3 -7 4 -8 14 -1 10 4 21 12 24 8 3 11 13 8 24 -2 11 1
23 8 27 7 5 10 4 6 -2 -3 -5 0 -10 8 -10 12 0 12 3 3 15 -15 17 -20 44 -7 36
5 -3 6 -11 2 -17 -3 -7 3 -4 15 7 12 10 19 22 17 26 -3 5 -2 10 2 13 5 2 2 2
-4 1 -14 -4 -12 30 2 43 4 5 5 2 1 -4 -5 -9 -2 -11 10 -6 14 5 13 8 -7 19 -13
7 -18 13 -11 14 7 0 10 5 6 12 -4 7 -3 8 5 4 6 -4 9 -12 5 -17 -3 -6 3 -5 15
3 l21 13 -23 12 c-12 7 -16 12 -8 13 7 0 11 6 8 14 -4 11 0 14 16 11 21 -4 21
-4 -3 15 -18 15 -20 18 -6 13 16 -5 18 -3 14 15 -4 12 -1 25 4 29 6 3 8 1 4
-5 -3 -6 -2 -13 4 -17 5 -3 10 3 10 15 0 12 4 18 10 15 6 -4 7 1 3 11 -4 11
-2 15 4 11 6 -4 8 2 6 16 -3 13 2 29 11 36 12 10 13 18 5 33 -9 16 -8 19 2 13
9 -6 10 -3 5 10 -5 15 -4 16 9 5 13 -11 14 -10 9 5 -5 13 -4 16 4 11 8 -5 10
-2 5 9 -4 12 -8 13 -13 5 -5 -8 -9 -7 -13 4 -4 9 -1 15 5 13 6 -1 13 4 16 12
2 8 0 11 -6 7 -6 -3 -13 -2 -16 3 -4 5 5 8 19 7 13 -2 22 0 20 5 -3 4 -2 9 2
12 5 2 2 2 -4 1 -7 -2 -13 1 -13 6 0 6 8 10 18 10 10 0 13 3 6 8 -8 5 -8 15 1
35 6 15 15 24 20 20 4 -5 5 -2 1 5 -4 7 -12 10 -17 7 -5 -4 -9 -1 -9 4 0 10
14 15 33 12 5 -1 6 3 2 9 -3 6 -10 8 -15 5 -5 -3 -12 0 -16 6 -4 7 -3 9 3 6 6
-4 18 4 27 18 20 31 21 41 1 25 -20 -16 -19 -6 1 14 9 9 11 16 4 16 -6 0 -8 5
-5 10 4 6 12 7 18 4 7 -4 9 -3 4 1 -4 5 0 16 9 26 12 13 12 19 3 25 -8 5 -10
3 -4 -7 5 -8 4 -11 -1 -6 -5 5 -9 12 -9 15 0 4 -4 14 -10 22 -8 13 -7 13 9 1
14 -12 19 -12 29 -1 9 10 9 11 0 6 -8 -5 -13 -1 -13 9 0 9 -4 14 -8 11 -4 -2
-8 4 -8 14 0 10 4 16 8 14 4 -3 8 0 8 6 0 6 5 8 13 4 9 -6 9 -5 0 8 -15 17 -7
29 13 21 10 -4 12 0 8 11 -3 9 -11 13 -18 9 -6 -3 -5 0 2 8 11 12 14 12 22 -1
6 -9 10 -10 10 -3 0 7 -8 17 -17 22 -17 10 -17 10 0 11 9 0 17 5 17 11 0 5 -5
7 -11 3 -8 -4 -9 1 -4 16 4 13 3 20 -2 17 -5 -4 -10 0 -10 8 0 13 3 13 17 0
16 -14 17 -14 13 10 -3 15 -1 25 6 25 7 0 10 4 6 9 -3 5 0 13 6 16 5 4 8 13 5
20 -3 8 6 21 20 29 13 9 24 22 23 29 0 9 -2 9 -6 -1 -2 -7 -13 -17 -23 -22
-17 -9 -18 -7 -10 19 4 16 5 33 2 37 -4 4 -2 4 5 0 7 -4 10 -14 7 -24 -5 -14
-4 -14 4 -3 6 8 8 21 4 29 -3 9 -1 13 5 9 5 -3 10 0 10 8 0 8 -3 13 -6 11 -3
-2 -12 2 -19 10 -10 12 -10 14 2 14 10 0 13 6 10 15 -4 8 -10 12 -16 9 -5 -3
1 10 13 29 13 19 26 34 30 31 3 -2 5 11 4 29 -1 18 3 38 8 45 7 9 7 12 -3 10
-7 -2 -15 3 -18 11 -3 8 0 11 7 7 6 -4 11 -2 11 3 0 6 -4 11 -9 11 -6 0 -9 9
-8 19 0 11 5 17 9 15 5 -3 6 -10 3 -15 -4 -5 -3 -9 0 -9 3 0 14 19 25 41 14
32 15 45 7 54 -7 7 -16 10 -21 7 -5 -3 -6 0 -2 7 4 6 12 9 17 6 5 -4 9 -1 9 5
0 6 -7 13 -16 17 -13 5 -13 8 -2 15 10 7 10 11 1 15 -7 2 -13 9 -13 15 0 6 6
5 15 -2 13 -10 18 -11 28 -1 7 7 8 11 2 9 -5 -2 -11 1 -12 5 -1 5 -10 15 -20
23 -17 12 -16 13 5 9 18 -3 22 0 18 10 -3 9 1 15 11 15 11 0 13 4 6 13 -12 15
-13 48 -1 41 8 -5 12 16 9 49 -1 9 3 17 10 17 7 0 9 3 6 6 -4 4 -14 1 -24 -7
-14 -11 -15 -11 -9 0 5 8 3 17 -5 23 -11 8 -10 8 4 4 28 -9 39 2 25 27 -10 19
-9 20 4 9 13 -11 15 -8 12 19 -3 24 -1 30 11 26 9 -4 12 -1 8 9 -3 9 -12 13
-22 10 -13 -5 -12 -3 2 8 10 7 17 18 16 22 -3 20 2 35 10 30 15 -10 6 25 -10
35 -11 8 -9 9 7 5 18 -6 20 -3 16 24 -2 16 -9 27 -14 24 -5 -3 -4 3 4 15 7 12
20 21 28 22 9 0 6 4 -7 9 -27 11 -31 22 -5 13 14 -5 15 -3 5 8 -15 16 -17 39
-3 39 5 0 7 -8 4 -17 -5 -15 -4 -15 4 -3 6 8 8 18 5 22 -2 5 1 16 9 25 7 9 9
14 3 11 -5 -3 -16 0 -23 8 -10 11 -10 14 2 14 7 0 17 7 20 16 3 8 2 13 -3 10
-5 -3 -14 0 -20 8 -9 11 -9 14 1 12 7 0 14 4 15 9 1 6 -6 9 -15 8 -10 -1 -11
0 -4 3 6 3 9 11 5 17 -4 7 0 8 13 3 15 -6 17 -5 7 5 -14 14 -18 33 -5 25 5 -3
9 1 9 9 0 8 -4 12 -9 9 -8 -5 -12 10 -9 30 1 4 -4 16 -11 25 -12 14 -11 15 5
2 10 -8 15 -21 12 -30 -3 -8 -2 -12 2 -7 10 10 11 56 1 50 -13 -8 -9 11 5 25
10 11 10 13 0 7 -9 -5 -13 0 -13 13 0 12 4 21 9 21 14 0 7 40 -9 51 -13 9 -12
10 3 5 9 -3 17 -1 17 4 0 6 -6 10 -12 10 -9 0 -10 3 -2 8 11 7 15 72 4 72 -3
0 -6 10 -7 21 -2 21 -1 21 14 3 13 -17 13 -16 -1 8 -13 23 -13 28 -1 38 12 10
13 16 4 26 -6 8 -8 14 -3 14 5 0 2 5 -6 10 -10 6 -11 10 -2 10 6 0 12 4 12 10
0 5 -8 7 -17 4 -17 -5 -17 -5 0 6 17 11 25 36 7 25 -6 -3 -7 1 -4 9 3 9 11 13
16 10 6 -4 6 1 -1 13 -6 11 -7 23 -4 27 3 3 0 6 -7 6 -9 0 -7 5 5 14 18 13 17
14 -8 11 -29 -3 -37 9 -11 19 10 4 13 2 8 -7 -6 -9 -4 -9 8 1 16 13 14 52 -3
52 -5 0 -9 8 -9 18 0 14 2 15 10 2 8 -12 10 -10 10 8 0 16 -4 21 -12 16 -9 -5
-9 -2 1 9 11 14 11 17 0 17 -9 0 -10 3 -3 8 12 8 27 43 16 39 -4 -1 -7 3 -7 8
0 6 4 9 8 7 5 -1 5 3 1 10 -5 7 -9 19 -10 28 -1 8 -4 29 -8 45 -5 23 -4 25 3
10 9 -19 10 -19 10 2 1 12 -5 24 -11 26 -7 3 -8 6 -2 6 6 1 10 19 8 46 -2 33
0 44 9 38 14 -8 -10 26 -33 46 -13 12 -13 13 1 8 12 -4 16 1 15 23 -1 15 -4
26 -8 23 -5 -2 -8 1 -8 7 0 6 -5 8 -12 4 -7 -4 -8 -3 -4 5 4 6 11 9 15 7 4 -3
8 1 8 10 0 10 -7 13 -21 9 -19 -5 -19 -5 -3 5 19 12 24 35 5 24 -7 -4 -10 -4
-6 1 4 4 3 14 -3 22 -9 9 -8 13 0 13 6 0 11 -4 11 -10 0 -5 5 -10 11 -10 8 0
8 4 0 14 -7 8 -11 20 -10 28 3 25 -1 39 -10 34 -4 -3 -6 11 -4 32 3 27 -1 40
-13 49 -14 10 -14 13 -3 13 11 0 11 2 1 9 -7 4 -14 14 -15 22 -2 8 -7 21 -12
29 -8 13 -7 13 8 1 9 -7 15 -17 12 -21 -3 -4 2 -11 10 -14 12 -4 13 -2 6 13
-6 10 -7 21 -4 25 3 3 0 6 -8 6 -11 0 -11 2 1 10 8 5 10 10 4 10 -7 0 -15 7
-18 16 -5 13 -3 14 6 6 10 -8 13 -4 14 14 1 13 -2 24 -8 24 -5 0 -6 -4 -3 -10
4 -6 -1 -7 -11 -3 -11 4 -13 8 -6 11 22 7 13 52 -15 78 -16 13 -23 24 -18 23
6 -1 19 -1 30 0 16 1 17 3 5 10 -8 6 -18 7 -24 4 -5 -3 -6 -1 -2 6 4 6 2 19
-5 27 -7 8 -8 14 -3 13 19 -3 34 1 34 11 0 6 -9 10 -21 10 -16 0 -19 4 -14 20
4 12 2 20 -6 20 -8 0 -8 5 2 17 10 11 10 14 2 9 -7 -4 -13 -3 -13 1 0 5 6 15
13 22 10 11 10 13 0 7 -8 -4 -13 -1 -13 8 0 9 -5 16 -12 16 -6 0 -8 3 -5 6 4
4 12 2 20 -4 10 -8 13 -6 13 8 0 10 -4 16 -8 14 -4 -3 -8 2 -8 10 0 9 -6 16
-12 16 -10 0 -9 3 1 9 8 5 10 14 5 22 -6 11 -5 12 7 2 12 -10 15 -8 15 7 0 10
-4 16 -8 14 -4 -3 -8 0 -8 6 0 6 -4 9 -8 6 -5 -3 -9 1 -9 9 0 11 4 12 13 4 8
-7 14 -7 19 1 3 5 1 10 -5 10 -6 0 -9 4 -5 9 3 6 -4 8 -15 6 -11 -2 -18 0 -15
6 4 5 13 9 21 9 10 0 7 7 -10 24 -27 24 -35 43 -13 30 7 -5 6 0 -3 11 -9 11
-10 16 -2 11 8 -5 11 -1 8 16 -2 13 1 29 6 35 8 9 4 15 -13 22 -22 9 -22 10
-4 11 11 1 15 4 8 6 -7 3 -9 12 -6 21 5 12 3 14 -7 8 -10 -6 -12 -4 -6 10 4
12 0 22 -14 32 -11 8 -20 19 -20 25 0 7 6 4 13 -5 10 -15 12 -14 11 13 0 17
-4 33 -9 38 -5 4 -5 2 -2 -4 3 -6 0 -11 -8 -11 -11 0 -12 3 -3 14 6 8 17 12
25 9 8 -3 11 -1 8 4 -3 6 -13 10 -21 10 -8 0 -13 4 -9 9 3 6 -3 15 -12 21 -15
9 -14 10 7 4 24 -6 24 -6 5 9 -11 8 -24 13 -29 10 -5 -4 -6 -1 -2 6 4 6 12 9
17 6 5 -4 9 -2 9 3 0 6 -7 13 -16 16 -9 4 -14 9 -11 13 4 3 1 13 -6 22 -10 14
-10 14 5 3 12 -10 18 -10 24 -1 4 7 3 9 -3 6 -6 -4 -14 0 -17 9 -3 8 -2 12 3
9 5 -3 13 -1 16 5 4 6 3 10 -2 9 -25 -4 -35 3 -30 21 3 11 1 18 -4 14 -5 -3
-9 2 -9 11 0 10 5 13 13 9 6 -4 2 4 -11 18 -17 19 -20 28 -11 33 7 5 10 4 5
-3 -9 -16 14 -26 27 -13 9 9 8 11 -5 6 -14 -6 -16 -2 -13 22 2 15 2 22 -1 16
-3 -7 -10 -13 -15 -13 -6 0 -7 5 -4 10 3 6 2 10 -2 10 -5 0 -8 18 -8 41 0 22
-3 43 -7 45 -5 3 -6 9 -3 14 3 5 0 12 -6 16 -8 4 -9 3 -5 -4 4 -7 2 -12 -4
-12 -13 0 -9 41 5 53 6 5 3 7 -8 3 -14 -5 -16 -1 -11 22 4 21 3 24 -5 12 -6
-8 -11 -10 -11 -5 0 6 6 17 13 24 10 11 9 13 -3 9 -11 -4 -16 1 -17 14 -1 14
3 18 15 14 15 -5 15 -5 0 8 -10 7 -18 22 -18 32 0 16 -2 17 -10 4 -5 -8 -10
-10 -10 -5 0 6 6 17 13 24 10 11 9 12 -2 6 -11 -6 -13 -4 -8 8 5 13 1 17 -15
17 -21 0 -21 0 -2 16 15 13 16 15 2 10 -12 -3 -15 -1 -11 10 3 8 0 20 -6 28
-6 7 -8 16 -4 19 3 4 -4 19 -18 34 -13 14 -19 23 -12 19 17 -9 29 34 12 45 -7
4 -16 6 -19 4 -4 -2 -6 8 -5 23 1 15 -2 35 -7 44 -5 10 -4 19 2 23 13 8 3 25
-13 25 -7 0 -6 -4 3 -10 8 -5 11 -10 5 -10 -5 0 -17 5 -25 10 -12 8 -12 10 -1
10 10 0 11 3 2 14 -8 10 -9 16 -1 21 5 3 10 11 10 17 0 6 -7 5 -17 -3 -11 -10
-14 -10 -9 -1 4 7 2 12 -4 12 -6 0 -9 4 -5 9 3 5 1 13 -5 16 -6 4 -8 16 -4 27
5 16 3 19 -7 12 -10 -6 -10 -3 1 11 9 11 10 16 3 11 -16 -9 -17 6 -1 22 16 16
-4 16 -21 0 -11 -11 -13 -10 -7 0 4 7 0 15 -9 18 -9 4 -12 10 -7 13 5 3 12 20
16 36 5 22 4 26 -4 15 -7 -11 -10 -11 -10 -2 0 8 -5 10 -12 6 -10 -6 -10 -4 0
8 9 12 10 18 2 23 -6 4 -9 14 -5 22 4 13 3 14 -9 4 -11 -9 -16 -9 -22 0 -4 8
-3 9 4 5 8 -5 11 0 8 16 -3 13 -5 25 -5 28 -1 3 -5 -1 -10 -8 -7 -11 -9 -10
-14 3 -4 9 -3 13 3 10 6 -3 10 3 10 14 0 12 -4 21 -10 21 -5 0 -10 12 -10 26
0 14 -4 23 -10 19 -5 -3 -10 1 -10 10 0 9 4 14 9 10 5 -3 13 -1 16 5 4 6 3 10
-2 9 -32 -6 -40 3 -40 39 1 32 -2 37 -21 36 -11 0 -19 3 -16 8 3 4 13 8 22 8
14 0 15 2 2 9 -8 6 -18 7 -22 5 -5 -3 -8 -2 -7 3 4 21 -2 34 -13 27 -7 -5 -8
-3 -3 6 6 10 11 9 22 -5 7 -11 13 -14 13 -7 0 6 -10 18 -22 28 l-23 16 23 -5
c12 -3 20 -1 16 4 -3 5 -12 9 -20 9 -17 0 -18 21 -1 40 6 8 2 6 -10 -4 -24
-20 -32 -10 -10 13 10 11 9 12 -2 6 -11 -6 -13 -2 -9 17 3 16 0 25 -8 25 -7 0
-10 -5 -7 -10 3 -6 1 -7 -6 -3 -9 6 -9 11 1 24 11 13 10 15 -4 9 -23 -8 -23 9
-1 22 16 8 14 10 -10 16 -15 4 -24 12 -20 18 4 7 0 8 -12 3 -18 -6 -18 -6 -2
12 22 24 21 32 0 32 -15 0 -16 -2 -3 -10 12 -7 10 -9 -6 -8 -18 2 -20 5 -11
19 6 10 15 15 21 12 5 -3 6 -1 2 5 -4 6 -13 9 -21 5 -11 -4 -15 2 -15 22 0 15
-4 24 -10 20 -5 -3 -10 1 -10 10 0 9 5 13 11 10 6 -4 5 2 -2 13 -7 12 -17 18
-21 16 -4 -3 -8 2 -8 11 0 9 -4 14 -9 11 -5 -3 -15 2 -22 12 -13 15 -12 16 3
4 11 -9 18 -10 23 -2 3 5 1 10 -5 10 -6 0 -9 4 -6 8 2 4 -5 9 -16 9 -12 1 -25
6 -31 12 -7 7 -2 8 14 4 23 -5 23 -5 5 9 -10 8 -16 20 -12 26 3 6 2 14 -4 17
-8 5 -7 12 2 23 12 14 10 14 -10 3 -13 -7 -26 -10 -30 -7 -3 3 -1 6 5 6 6 0
14 7 17 16 5 14 4 15 -8 5 -9 -8 -16 -8 -20 -2 -4 5 -2 12 4 16 7 4 7 12 0 24
-5 10 -6 22 -2 26 4 5 2 5 -5 1 -16 -9 -56 35 -44 47 12 12 3 37 -14 37 -21 0
-26 29 -7 40 15 9 15 10 -3 8 -11 -2 -20 2 -20 9 0 6 -4 15 -9 20 -5 5 -6 3
-2 -4 4 -7 2 -13 -4 -13 -7 0 -9 8 -5 20 4 14 2 20 -7 18 -9 -2 -13 9 -13 38
0 34 -3 40 -18 36 -15 -4 -15 -7 -5 -21 12 -14 11 -15 -5 -2 -13 10 -15 17 -6
27 8 10 8 14 0 14 -6 0 -11 5 -11 11 0 5 5 7 10 4 6 -3 10 -1 10 5 0 6 -11 8
-25 6 -13 -3 -28 0 -31 6 -4 6 -3 8 2 5 6 -3 16 -2 24 4 12 7 9 9 -9 9 -20 0
-22 3 -13 12 15 15 15 28 1 28 -5 0 -7 -4 -4 -10 3 -5 1 -10 -4 -10 -15 0 -14
13 2 29 6 7 8 12 2 11 -21 -5 -36 0 -30 10 3 6 2 10 -4 10 -5 0 -11 -5 -13
-12 -3 -7 -7 -5 -11 6 -4 10 -3 15 3 11 6 -3 10 -1 10 4 0 6 -5 11 -11 11 -8
0 -7 6 2 17 10 11 10 14 2 9 -8 -4 -13 -2 -13 4 0 6 -4 8 -10 5 -5 -3 -10 3
-10 15 0 17 -4 20 -22 15 -19 -6 -21 -5 -10 6 19 20 14 31 -10 25 -13 -3 -17
-3 -10 0 14 7 16 34 2 34 -5 0 -14 10 -21 21 -9 17 -8 20 3 14 11 -7 11 -5 0
6 -11 11 -14 12 -21 1 -6 -11 -10 -10 -16 5 -5 10 -9 27 -10 38 -5 49 -4 48
-20 35 -13 -11 -14 -10 -9 4 4 9 -4 36 -17 61 -19 36 -26 42 -38 32 -12 -10
-12 -9 -1 13 12 23 12 24 -3 11 -12 -9 -17 -10 -17 -2 0 7 -5 9 -12 5 -7 -4
-8 -3 -4 5 4 6 11 9 16 6 5 -3 12 0 16 6 4 7 3 10 -2 6 -5 -3 -20 1 -34 10
-14 8 -17 12 -8 9 10 -3 20 0 24 6 4 6 3 8 -4 4 -6 -3 -13 3 -17 14 -3 11 -13
20 -22 20 -12 0 -13 3 -4 14 9 10 8 16 -4 26 -8 7 -12 17 -8 23 4 6 1 7 -6 3
-9 -6 -8 -13 6 -29 12 -15 13 -18 2 -9 -9 6 -18 9 -21 6 -3 -3 -5 8 -3 24 1
17 -3 29 -10 29 -7 0 -11 -9 -9 -21 3 -13 0 -10 -7 7 -6 15 -15 27 -20 27 -5
0 -9 7 -9 15 0 8 -5 15 -11 15 -5 0 -7 -6 -3 -12 4 -7 3 -9 -1 -5 -9 7 -15 28
-17 55 -1 7 -8 10 -17 7 -8 -3 -12 -3 -8 1 4 4 2 13 -4 20 -8 9 -5 11 13 8 17
-3 16 -2 -5 7 -22 8 -25 14 -17 24 9 11 7 12 -11 8 -13 -4 -20 -2 -16 3 3 6 2
16 -4 24 -6 10 -9 11 -9 3 0 -7 -7 -13 -16 -13 -13 0 -14 3 -5 14 9 11 9 16 0
22 -8 5 -9 3 -4 -6 5 -8 4 -11 -3 -6 -6 4 -8 14 -5 23 5 12 2 15 -10 10 -9 -3
-19 -1 -23 5 -4 7 -3 8 4 4 7 -4 12 -2 12 4 0 6 4 9 8 6 5 -3 9 1 9 8 0 7 -6
13 -13 13 -7 0 -11 -4 -8 -9 3 -4 0 -8 -5 -8 -6 0 -11 9 -11 21 0 14 -5 19
-14 16 -8 -3 -22 1 -33 9 -17 14 -16 14 5 4 12 -6 22 -7 22 -2 0 5 -12 14 -26
21 -17 7 -24 17 -20 27 3 8 2 13 -3 10 -4 -3 -17 2 -27 10 -10 9 -12 12 -4 8
12 -6 13 -5 2 7 -11 11 -14 12 -21 1 -7 -11 -9 -11 -14 1 -3 8 0 20 6 26 8 8
5 9 -11 6 -12 -2 -22 0 -22 6 0 5 6 9 13 10 6 0 2 5 -10 11 -20 10 -27 25 -26
64 0 6 -5 11 -12 11 -7 0 -11 -9 -8 -21 2 -12 -4 -4 -13 17 -12 28 -19 35 -25
25 -6 -9 -9 -9 -9 -1 0 7 8 17 18 23 15 10 15 10 -3 8 -15 -2 -20 3 -19 19 0
13 -2 21 -4 18 -9 -9 -32 17 -25 28 3 5 2 7 -4 4 -5 -4 -16 5 -23 18 -7 14
-18 25 -23 25 -6 0 -3 -8 6 -18 14 -15 15 -19 2 -19 -8 0 -12 4 -9 9 3 4 -2
11 -12 15 -14 5 -14 8 7 23 l23 18 -32 -4 c-26 -3 -30 -1 -25 14 6 15 5 16
-12 2 -11 -9 -16 -10 -11 -2 4 6 3 12 -2 12 -5 0 -14 11 -20 25 -6 14 -17 24
-24 23 -7 -2 -12 5 -10 14 2 12 -2 16 -13 12 -10 -4 -15 0 -15 14 0 12 -9 23
-21 27 -11 4 -18 9 -15 12 9 10 -15 33 -33 33 -12 -1 -10 -4 7 -13 12 -7 20
-16 16 -19 -3 -4 -14 1 -24 10 -15 12 -17 19 -8 29 8 11 7 12 -6 7 -12 -5 -15
-2 -10 10 5 12 2 15 -10 10 -9 -3 -16 -1 -16 5 0 6 5 11 12 11 6 0 8 3 5 6 -4
4 -14 1 -22 -6 -9 -7 -15 -9 -14 -4 4 22 -2 34 -17 34 -8 0 -12 5 -9 10 3 6 2
10 -4 10 -5 0 -12 -6 -15 -12 -3 -7 -3 -2 0 11 5 17 3 21 -7 16 -9 -6 -11 -3
-6 8 3 10 2 17 -3 17 -5 0 -11 -8 -13 -17 -3 -11 -5 -7 -6 10 -1 18 -6 27 -17
27 -9 0 -14 6 -11 13 2 6 0 21 -5 32 -8 18 -8 18 -4 -2 4 -23 -8 -31 -19 -13
-4 6 -11 7 -17 4 -7 -4 -8 -2 -4 5 4 6 13 9 19 5 7 -3 3 2 -7 10 -11 9 -23 16
-28 16 -4 0 -8 5 -8 11 0 5 5 7 12 3 7 -4 8 -3 4 5 -6 9 -11 9 -23 -1 -14 -11
-15 -10 -9 9 6 18 4 21 -12 18 -15 -2 -19 1 -15 15 3 10 -1 21 -8 26 -9 5 -10
2 -5 -11 5 -14 4 -16 -7 -7 -8 7 -18 8 -22 4 -5 -4 -5 -2 -2 5 4 6 4 13 0 16
-5 2 -3 2 4 1 7 -2 15 2 19 8 4 7 3 8 -4 4 -7 -4 -12 -3 -12 2 0 6 -9 8 -20 5
-12 -3 -20 0 -20 6 0 7 5 9 12 5 7 -4 8 -3 4 4 -5 9 -13 9 -27 1 -12 -6 -23
-8 -27 -5 -3 3 1 6 8 6 9 0 7 5 -6 15 -19 15 -19 15 1 9 16 -5 17 -4 5 4 -10
8 -18 8 -27 0 -11 -8 -12 -7 -7 7 5 13 4 16 -4 11 -7 -4 -12 -2 -12 5 0 8 -5
7 -17 -2 -16 -12 -17 -12 -6 1 7 10 8 21 3 30 -5 8 -6 18 -3 24 3 5 1 6 -5 2
-6 -3 -13 -2 -17 4 -3 5 -15 10 -27 10 -13 0 -18 5 -15 14 4 10 1 13 -9 9 -8
-3 -20 2 -27 11 -7 10 -20 18 -29 20 -21 3 -78 61 -78 78 1 7 7 2 15 -12 16
-28 21 -19 5 10 -6 11 -18 17 -30 15 -16 -3 -20 2 -20 23 l-1 27 -14 -30 -14
-30 5 35 c4 28 3 33 -7 23 -19 -19 -27 -16 -31 10 -2 16 -9 21 -25 19 -18 -2
-21 1 -18 17 5 25 -11 28 -19 4 -3 -10 -4 -5 -2 10 2 20 -2 31 -17 38 -14 8
-18 8 -13 0 4 -6 0 -11 -8 -11 -18 0 -21 11 -6 26 6 6 2 10 -12 11 -18 2 -20
0 -8 -7 24 -15 2 -12 -29 5 -16 8 -32 11 -36 7 -5 -4 -5 -1 -1 6 5 9 13 9 29
1 20 -9 20 -9 5 4 -10 8 -15 16 -12 19 3 4 -3 5 -13 4 -10 0 -17 5 -16 12 2 6
-2 12 -8 12 -5 0 -8 4 -5 9 4 5 -4 7 -16 4 -13 -3 -20 -2 -16 2 4 4 0 14 -10
22 -9 8 -12 12 -5 9 6 -4 14 -2 17 3 7 11 -13 9 -33 -3 -11 -7 -13 -5 -8 8 4
10 3 15 -3 11 -6 -3 -10 -1 -10 4 0 6 -3 10 -7 10 -25 -4 -53 2 -48 11 3 6 1
10 -5 10 -6 0 -8 5 -5 10 4 6 -7 10 -24 10 -24 0 -31 4 -31 20 0 18 -16 26
-44 21 -5 -1 -6 5 -3 13 8 20 -13 33 -24 15 -6 -11 -11 -10 -27 4 -10 9 -21
16 -23 15 -2 -2 -3 -1 -2 1 2 2 -5 10 -15 18 -11 9 -11 12 -2 7 8 -4 26 -16
39 -28 l24 -21 -19 27 c-19 27 -25 30 -76 30 -15 1 -26 6 -25 12 1 6 -5 10
-13 8 -11 -3 -11 1 3 16 16 18 16 19 -17 17 -19 0 -33 3 -30 6 2 4 -1 11 -7
15 -6 3 -15 1 -19 -6 -5 -8 -9 -7 -13 5 -4 9 -3 13 3 10 6 -3 10 -1 10 4 0 6
-9 11 -20 11 -11 0 -20 7 -20 16 0 8 -4 12 -10 9 -5 -3 -10 -2 -10 3 0 5 -15
8 -32 6 -18 -1 -27 0 -20 3 6 2 9 10 5 16 -5 8 -2 8 8 0 13 -10 16 -10 16 1 0
8 -12 12 -32 11 -18 -1 -41 2 -51 7 -16 7 -16 8 4 4 27 -5 29 5 2 21 -16 11
-21 10 -29 -5 -8 -13 -10 -10 -7 17 l4 35 -18 -24 -18 -23 3 26 c2 18 -1 24
-11 20 -9 -3 -12 2 -9 16 5 25 2 26 -16 4 -12 -14 -12 -15 -1 -9 11 7 12 4 3
-13 -15 -27 -16 -26 -18 5 0 15 -9 34 -18 43 -10 9 -15 10 -11 4 4 -7 2 -13
-3 -13 -6 0 -11 6 -11 14 0 8 -7 17 -16 20 -14 5 -15 4 -4 -9 11 -13 10 -14
-3 -10 -8 4 -17 14 -20 24 -2 10 -11 18 -20 18 -9 0 -14 -3 -12 -7 2 -4 -3 -7
-11 -7 -8 0 -13 6 -10 13 3 8 1 16 -4 19 -5 3 -11 -3 -13 -12 -3 -13 -5 -11
-7 7 -1 23 -2 23 -10 5 -8 -18 -9 -18 -9 -2 -1 12 -5 16 -13 11 -9 -5 -8 -2 1
9 8 10 11 20 7 24 -3 3 -6 1 -6 -5 0 -7 -9 -12 -21 -12 -16 0 -19 4 -14 23 4
15 3 18 -3 8 -7 -9 -12 -10 -16 -2 -4 6 -13 8 -19 4 -18 -11 -38 -12 -31 -2 3
5 10 6 16 3 7 -4 8 -2 4 4 -5 9 -13 9 -29 0 -20 -10 -21 -10 -8 5 9 12 10 17
2 17 -7 0 -10 3 -8 8 3 4 -5 7 -18 7 -13 0 -21 -3 -19 -6 1 -3 -3 -6 -10 -6
-8 0 -11 8 -8 21 4 21 4 21 -12 1 -15 -19 -16 -19 -9 -1 5 15 3 18 -10 13 -11
-4 -25 1 -37 13 -11 11 -20 16 -20 10 0 -5 -5 -10 -10 -10 -7 0 -7 6 0 19 14
28 12 38 -3 16 -11 -14 -16 -15 -22 -5 -6 9 -4 11 5 5 9 -5 11 -4 6 4 -6 9
-11 9 -21 1 -10 -8 -15 -8 -21 1 -5 8 -3 9 6 4 9 -6 11 -4 5 5 -6 10 -11 9
-23 -6 -11 -15 -13 -15 -9 -2 7 19 -16 31 -31 16 -6 -6 -12 -6 -17 3 -5 7 -4
10 3 5 6 -4 10 1 9 13 -1 16 -5 18 -19 10 -14 -7 -18 -6 -18 6 0 8 -5 15 -11
15 -5 0 -7 5 -3 12 4 7 3 8 -5 4 -9 -6 -9 -11 0 -22 10 -12 9 -13 -5 -8 -9 3
-16 12 -16 20 0 8 -10 14 -26 14 -19 0 -25 4 -21 14 4 10 1 13 -7 10 -8 -3
-21 4 -29 16 -12 17 -16 18 -20 6 -4 -9 -1 -15 5 -13 6 1 13 -5 15 -13 4 -13
3 -13 -6 0 -6 8 -11 11 -11 5 0 -5 -12 4 -26 20 -18 22 -23 25 -19 10 6 -19 6
-19 -7 1 -7 12 -18 19 -25 17 -8 -3 -11 3 -8 17 2 11 0 18 -6 15 -5 -4 -9 -12
-9 -20 0 -8 -5 -17 -11 -21 -8 -4 -9 1 -4 17 7 22 7 23 -10 9 -11 -9 -16 -10
-11 -2 4 7 1 12 -8 12 -9 0 -16 -6 -16 -12 0 -7 -5 -5 -11 5 -7 12 -17 16 -32
12 -17 -5 -19 -4 -7 4 13 9 13 12 1 23 -10 10 -12 10 -7 1 4 -7 2 -13 -3 -13
-6 0 -11 4 -11 10 0 5 -10 14 -21 21 -15 8 -19 8 -15 0 4 -6 2 -11 -3 -11 -6
0 -11 5 -11 11 0 5 -4 8 -9 4 -6 -3 -15 3 -21 12 -11 17 -11 17 -6 0 5 -15 2
-16 -14 -7 -10 5 -22 16 -26 23 -5 7 0 6 12 -3 18 -14 18 -14 5 3 -15 18 -15
18 -29 0 -14 -17 -14 -17 -9 5 3 13 3 21 0 18 -4 -3 -12 -1 -20 5 -7 6 -13 8
-13 4 0 -4 -12 1 -27 11 -25 16 -26 16 -14 1 8 -10 10 -21 6 -25 -4 -4 -10 -1
-12 6 -4 10 -8 10 -21 0 -14 -10 -15 -10 -4 2 6 8 12 18 12 23 0 4 -6 5 -12 0
-18 -11 -39 -13 -33 -3 3 5 1 11 -5 15 -6 4 -8 11 -5 16 3 5 -2 6 -11 2 -13
-5 -15 -3 -9 7 5 9 4 11 -4 6 -6 -4 -8 -12 -5 -18 5 -7 2 -8 -6 -3 -10 6 -12
4 -7 -8 9 -24 0 -21 -14 4 -8 15 -8 19 0 15 6 -4 11 -3 11 2 0 14 -35 21 -53
11 -10 -6 -17 -4 -20 6 -4 10 -1 12 11 8 9 -3 14 -3 10 2 -13 14 -73 12 -93
-4 -15 -12 -14 -10 3 11 17 19 20 28 11 33 -7 5 -10 4 -6 -2 10 -16 -21 -25
-44 -13 -11 6 -25 8 -31 4 -7 -5 -8 -3 -4 5 5 7 14 10 20 8 7 -3 13 1 13 8 0
10 -7 11 -24 4 -34 -13 -37 -11 -22 8 10 11 10 14 2 9 -21 -12 -54 -16 -48 -5
4 5 10 7 15 4 5 -3 11 -2 14 3 8 13 -27 11 -43 -2 -11 -9 -13 -6 -8 14 4 14 4
19 1 13 -3 -7 -12 -13 -20 -13 -9 0 -13 4 -10 9 6 10 -37 6 -56 -5 -11 -6 -11
-5 0 8 10 12 10 17 -1 26 -10 9 -19 7 -36 -5 -21 -14 -24 -14 -39 3 -16 17
-16 17 0 5 12 -9 18 -9 24 0 4 7 3 9 -4 5 -6 -3 -14 -2 -17 4 -5 8 -11 7 -22
-1 -12 -10 -16 -10 -23 1 -5 8 -6 18 -3 24 3 5 1 6 -6 2 -6 -4 -9 -11 -6 -16
3 -5 0 -12 -6 -16 -8 -4 -9 -3 -5 4 4 7 1 12 -8 12 -22 0 -31 -4 -29 -12 2 -4
-4 -5 -12 -2 -14 6 -19 18 -16 37 0 4 -5 6 -11 5 -7 -2 -12 3 -10 10 1 8 -2
11 -8 7 -7 -4 -7 -13 0 -28 10 -22 10 -22 -6 1 -17 23 -48 29 -59 12 -9 -15
-25 -12 -25 4 0 9 -10 13 -28 11 -19 -1 -29 3 -29 11 0 10 4 11 13 3 8 -7 14
-6 20 2 4 8 3 9 -4 5 -7 -4 -12 -3 -12 3 0 5 -9 9 -20 8 -11 -1 -19 -6 -16
-12 2 -7 -2 -12 -10 -12 -7 0 -11 4 -9 8 6 9 -43 21 -55 14 -6 -4 -10 -1 -10
6 0 16 -31 38 -47 32 -7 -3 -11 -9 -8 -13 3 -5 1 -12 -5 -15 -6 -4 -10 -3 -9
2 3 19 -2 33 -12 33 -7 0 -18 8 -26 18 -13 15 -13 15 -4 -5 15 -31 14 -35 -9
-21 -11 7 -20 20 -21 28 0 13 -1 13 -7 0 -8 -18 -32 -25 -32 -9 0 6 -9 9 -19
6 -10 -2 -25 0 -32 5 -11 8 -10 9 3 4 10 -3 19 -2 22 2 3 4 -9 9 -25 10 -21 2
-28 -1 -23 -9 4 -8 3 -9 -5 -5 -8 6 -9 12 -2 20 8 9 7 13 -4 13 -8 0 -15 -5
-15 -10 0 -5 -8 -6 -17 -2 -48 19 -67 13 -40 -14 10 -10 9 -11 -5 -6 -16 6
-22 17 -20 35 0 3 -8 6 -18 6 -10 0 -16 -4 -14 -8 3 -4 -2 -5 -11 -2 -10 4
-15 14 -12 25 3 11 1 17 -4 13 -5 -3 -9 -13 -9 -22 0 -11 -3 -13 -8 -6 -8 13
-82 24 -82 12 0 -4 5 -8 12 -8 6 0 9 -3 6 -6 -4 -3 -19 1 -36 10 -22 12 -32
12 -41 3 -10 -9 -11 -8 -6 5 8 21 -30 35 -50 18 -12 -10 -16 -9 -22 6 -6 17
-8 16 -14 -6 l-7 -25 -1 25 c-1 20 -3 22 -11 10 -8 -12 -10 -12 -10 5 -1 17
-3 16 -11 -5 -10 -25 -11 -25 -25 -5 l-15 20 -16 -20 c-9 -12 -13 -14 -11 -5
4 14 -30 50 -48 50 -4 0 1 -6 12 -14 18 -14 18 -15 -3 -13 -13 1 -23 5 -23 9
0 4 -5 8 -11 8 -5 0 -7 -6 -3 -12 5 -9 2 -9 -9 1 -9 7 -17 9 -17 4 0 -5 -7
-10 -16 -10 -15 0 -14 2 1 13 10 8 22 11 26 8 5 -3 9 -1 9 4 0 17 -74 4 -87
-14 -11 -15 -13 -16 -13 -2 0 21 -27 30 -51 18 -13 -8 -19 -7 -19 0 0 6 -5 8
-10 5 -6 -4 -23 1 -38 12 -30 20 -92 25 -85 7 2 -7 -1 -15 -8 -20 -7 -4 -10
-3 -6 2 3 5 -1 17 -8 27 -11 16 -13 16 -19 2 -4 -11 -2 -14 7 -9 9 5 9 4 0 -6
-9 -10 -16 -8 -34 9 -15 14 -26 17 -34 11 -7 -6 -16 -5 -23 2 -9 9 -12 9 -12
-1 0 -7 -4 -10 -9 -6 -5 3 -13 0 -17 -6 -5 -8 -3 -9 6 -4 8 5 11 4 6 -3 -4 -6
-14 -8 -23 -5 -12 5 -14 3 -8 -7 5 -9 4 -11 -4 -6 -9 6 -9 11 0 22 6 8 9 17 5
21 -3 3 -6 1 -6 -6 0 -9 -8 -11 -21 -8 -15 4 -19 2 -15 -8 3 -8 1 -17 -5 -20
-5 -4 -9 -3 -8 2 5 27 -3 32 -41 28 -33 -3 -40 -1 -40 13 0 15 2 15 10 2 5 -8
10 -10 10 -4 0 6 -3 13 -6 17 -9 8 -35 -4 -29 -13 11 -18 -14 -19 -27 -2 -7
11 -22 18 -33 16 -11 -2 -23 2 -27 9 -6 9 -8 9 -8 0 0 -6 -8 -10 -17 -8 -10 1
-24 -2 -31 -8 -9 -7 -11 -5 -6 9 6 16 4 16 -15 -3 -25 -26 -34 -28 -53 -10
-15 16 -48 18 -48 4 0 -5 6 -7 13 -4 8 3 14 -1 14 -8 0 -11 -6 -11 -29 1 -18
9 -26 19 -21 27 4 6 -6 2 -21 -10 -22 -18 -32 -20 -47 -12 -10 5 -19 7 -19 3
0 -3 -8 0 -17 7 -14 12 -16 12 -11 -2 5 -12 0 -15 -25 -14 -18 2 -39 -3 -47
-9 -13 -10 -13 -9 -1 7 8 10 21 15 32 12 20 -7 35 10 18 21 -8 5 -9 3 -4 -6 6
-10 4 -12 -10 -6 -10 4 -28 0 -41 -9 -22 -14 -23 -14 -17 2 6 16 5 16 -10 4
-9 -7 -14 -18 -11 -23 4 -6 -3 -5 -14 1 -12 6 -26 19 -31 29 -6 9 -11 12 -11
5 0 -6 -8 -10 -17 -8 -22 3 -45 -14 -37 -27 3 -5 -3 -4 -14 3 -12 7 -19 16
-16 20 2 4 -1 11 -7 15 -8 4 -9 3 -5 -4 4 -8 -3 -10 -24 -7 -17 2 -28 0 -25
-6 11 -16 -7 -10 -21 9 -13 16 -14 16 -7 -2 4 -13 3 -17 -5 -12 -7 4 -12 2
-12 -5 0 -7 -7 -4 -16 7 -14 17 -15 17 -10 1 3 -11 2 -16 -4 -12 -6 3 -10 14
-10 23 -1 10 -6 4 -14 -13 -8 -19 -15 -25 -20 -17 -4 7 -2 12 3 12 6 0 11 5
11 10 0 13 -20 9 -38 -7 -13 -13 -45 -7 -37 7 3 5 0 12 -6 16 -8 5 -9 3 -4 -6z
m-85 -33 c0 -8 -3 -8 -9 2 -6 9 -11 10 -15 2 -9 -14 -26 -14 -26 0 0 5 4 8 9
4 5 -3 12 -1 16 5 8 13 25 3 25 -13z m321 6 c13 -17 13 -17 -6 -3 -11 8 -22
16 -24 17 -2 2 0 3 6 3 6 0 17 -8 24 -17z m84 -1 c-3 -3 -11 0 -18 7 -9 10 -8
11 6 5 10 -3 15 -9 12 -12z m485 -4 c0 -6 -6 -5 -15 2 -8 7 -15 14 -15 16 0 2
7 1 15 -2 8 -4 15 -11 15 -16z m60 1 c0 -6 -4 -7 -10 -4 -5 3 -10 11 -10 16 0
6 5 7 10 4 6 -3 10 -11 10 -16z m-1103 -16 c0 -7 -4 -13 -8 -13 -4 0 -9 6 -12
13 -3 8 0 14 7 14 7 0 13 -6 13 -14z m1402 3 c10 -12 8 -13 -8 -9 -12 3 -18 9
-15 14 7 12 10 11 23 -5z m-1565 -11 c3 -8 1 -15 -4 -15 -6 0 -10 7 -10 15 0
8 2 15 4 15 2 0 6 -7 10 -15z m1520 0 c-4 -8 -8 -15 -10 -15 -2 0 -4 7 -4 15
0 8 4 15 10 15 5 0 7 -7 4 -15z m205 -7 c13 -10 19 -18 14 -18 -6 0 -16 7 -23
15 -9 11 -17 12 -30 5 -11 -6 -21 -6 -24 -1 -15 24 31 24 63 -1z m-1975 -29
c-3 -5 -10 -7 -15 -3 -5 3 -7 10 -3 15 3 5 10 7 15 3 5 -3 7 -10 3 -15z m31
12 c3 -5 2 -12 -3 -15 -5 -3 -9 1 -9 9 0 17 3 19 12 6z m2045 1 c0 -5 -7 -9
-15 -9 -8 0 -12 4 -9 9 3 4 9 8 15 8 5 0 9 -4 9 -8z m65 -2 c-3 -5 -12 -10
-18 -10 -7 0 -6 4 3 10 19 12 23 12 15 0z m-2651 -76 c3 -8 2 -12 -4 -9 -6 3
-10 10 -10 16 0 14 7 11 14 -7z m3266 -36 c0 -6 -6 -5 -15 2 -8 7 -15 14 -15
16 0 2 7 1 15 -2 8 -4 15 -11 15 -16z m-3549 -31 c-10 -9 -11 -8 -5 6 3 10 9
15 12 12 3 -3 0 -11 -7 -18z m3766 -29 c-3 -8 -6 -5 -6 6 -1 11 2 17 5 13 3
-3 4 -12 1 -19z m50 0 c-3 -8 -6 -5 -6 6 -1 11 2 17 5 13 3 -3 4 -12 1 -19z
m248 -68 c-3 -5 -12 -10 -18 -10 -7 0 -6 4 3 10 19 12 23 12 15 0z m-4548 -32
c-3 -8 -6 -5 -6 6 -1 11 2 17 5 13 3 -3 4 -12 1 -19z m4819 -20 c4 -7 3 -10
-1 -5 -5 4 -18 -1 -29 -10 -21 -18 -21 -18 -2 5 22 26 23 26 32 10z m38 -26
c3 -5 -1 -9 -9 -9 -8 0 -12 4 -9 9 3 4 7 8 9 8 2 0 6 -4 9 -8z m-5205 -45 c-2
-1 -13 -9 -24 -17 -19 -14 -19 -14 -6 3 7 9 18 17 24 17 6 0 8 -1 6 -3z m61
-1 c0 -3 -4 -8 -10 -11 -5 -3 -10 -1 -10 4 0 6 5 11 10 11 6 0 10 -2 10 -4z
m5460 -66 c0 -5 -5 -10 -11 -10 -5 0 -7 5 -4 10 3 6 8 10 11 10 2 0 4 -4 4
-10z m206 -79 c1 -6 0 -7 -3 -1 -2 5 -9 8 -13 5 -5 -3 -11 -1 -14 4 -4 5 2 8
11 7 9 -2 18 -8 19 -15z m-6113 -18 c-3 -7 -6 -13 -8 -13 -2 0 -5 6 -8 13 -3
8 1 14 8 14 7 0 11 -6 8 -14z m-403 -153 c0 -5 -5 -10 -11 -10 -5 0 -7 5 -4
10 3 6 8 10 11 10 2 0 4 -4 4 -10z m-257 -145 c-3 -9 -8 -14 -10 -11 -3 3 -2
9 2 15 9 16 15 13 8 -4z m7685 -110 c-3 -3 -9 2 -12 12 -6 14 -5 15 5 6 7 -7
10 -15 7 -18z m-7961 -29 c0 -8 -6 -12 -14 -9 -7 3 -10 9 -7 14 8 14 21 11 21
-5z m8104 -49 c-10 -9 -11 -8 -5 6 3 10 9 15 12 12 3 -3 0 -11 -7 -18z m89
-36 c0 -5 -7 -12 -16 -15 -14 -5 -15 -4 -4 9 14 17 20 19 20 6z m-8767 -256
c-3 -9 -8 -14 -10 -11 -3 3 -2 9 2 15 9 16 15 13 8 -4z m9327 -109 c0 -2 -8
-10 -17 -17 -16 -13 -17 -12 -4 4 13 16 21 21 21 13z m130 -90 c0 -3 -4 -8
-10 -11 -5 -3 -10 -1 -10 4 0 6 5 11 10 11 6 0 10 -2 10 -4z m-9775 -26 c4 -6
3 -9 -2 -8 -15 4 -54 -23 -47 -34 5 -7 2 -8 -6 -3 -10 6 -6 14 16 32 34 27 31
26 39 13z m9850 -40 c3 -5 1 -10 -4 -10 -6 0 -11 5 -11 10 0 6 2 10 4 10 3 0
8 -4 11 -10z m150 -100 c-3 -5 -11 -10 -16 -10 -6 0 -7 5 -4 10 3 6 11 10 16
10 6 0 7 -4 4 -10z m65 -60 c0 -5 -5 -10 -11 -10 -5 0 -7 5 -4 10 3 6 8 10 11
10 2 0 4 -4 4 -10z m291 -237 c13 -17 13 -17 -6 -3 -11 8 -22 16 -24 17 -2 2
0 3 6 3 6 0 17 -8 24 -17z m-11101 -197 c0 -3 -4 -8 -10 -11 -5 -3 -10 -1 -10
4 0 6 5 11 10 11 6 0 10 -2 10 -4z m11645 -316 c3 -6 -1 -7 -9 -4 -18 7 -21
14 -7 14 6 0 13 -4 16 -10z m60 -70 c-3 -5 -12 -10 -18 -10 -7 0 -6 4 3 10 19
12 23 12 15 0z m-12120 -10 c-3 -5 -12 -10 -18 -10 -7 0 -6 4 3 10 19 12 23
12 15 0z m-67 -75 c-3 -3 -9 2 -12 12 -6 14 -5 15 5 6 7 -7 10 -15 7 -18z
m12332 -60 c7 -8 9 -15 6 -15 -4 0 -14 7 -22 15 -9 8 -11 15 -6 15 5 0 15 -7
22 -15z m24 -41 c8 -22 8 -24 -6 -24 -6 0 -8 3 -5 7 4 3 2 12 -4 20 -7 8 -8
13 -1 13 5 0 13 -7 16 -16z m550 -682 c3 -5 -1 -9 -9 -9 -8 0 -12 4 -9 9 3 4
7 8 9 8 2 0 6 -4 9 -8z m79 -115 c3 -8 -1 -14 -8 -14 -7 0 -11 6 -8 14 3 7 6
13 8 13 2 0 5 -6 8 -13z m-13742 -56 c-11 -15 -17 -32 -13 -36 4 -5 2 -5 -5
-1 -9 5 -7 14 5 36 9 17 21 30 25 30 5 0 -1 -13 -12 -29z m-292 -462 c-16 -10
-23 -4 -14 10 3 6 11 8 17 5 6 -4 5 -9 -3 -15z m-19 -35 c0 -9 -5 -12 -12 -8
-7 5 -9 2 -5 -9 4 -11 2 -14 -9 -10 -13 5 -13 8 2 24 21 23 24 23 24 3z m-44
-66 c-9 -12 -16 -19 -16 -15 0 11 24 47 28 42 2 -2 -3 -14 -12 -27z m14518
-66 c3 -5 -1 -9 -9 -9 -8 0 -12 4 -9 9 3 4 7 8 9 8 2 0 6 -4 9 -8z m46 -92 c6
-11 9 -20 8 -20 -2 0 -11 9 -21 20 -9 11 -13 20 -7 20 5 0 14 -9 20 -20z
m-14655 -49 c3 -5 2 -12 -3 -15 -5 -3 -9 1 -9 9 0 17 3 19 12 6z m14705 -45
c0 -3 -4 -8 -10 -11 -5 -3 -10 -1 -10 4 0 6 5 11 10 11 6 0 10 -2 10 -4z
m-14776 -86 c-10 -16 -20 -28 -22 -26 -4 5 28 56 35 56 2 0 -4 -13 -13 -30z
m14856 -54 c0 -3 -4 -8 -10 -11 -5 -3 -10 -1 -10 4 0 6 5 11 10 11 6 0 10 -2
10 -4z m90 -170 c0 -2 -7 -7 -16 -10 -8 -3 -12 -2 -9 4 6 10 25 14 25 6z
m-15125 -136 c3 -6 -1 -7 -9 -4 -18 7 -21 14 -7 14 6 0 13 -4 16 -10z m-74
-163 c-13 -13 -26 -3 -16 12 3 6 11 8 17 5 6 -4 6 -10 -1 -17z m15404 -227 c3
-6 -1 -7 -9 -4 -18 7 -21 14 -7 14 6 0 13 -4 16 -10z m-15475 -6 c0 -8 -19
-13 -24 -6 -3 5 1 9 9 9 8 0 15 -2 15 -3z m15490 -44 c0 -5 -2 -10 -4 -10 -3
0 -8 5 -11 10 -3 6 -1 10 4 10 6 0 11 -4 11 -10z m-15630 -284 c0 -2 -7 -7
-16 -10 -8 -3 -12 -2 -9 4 6 10 25 14 25 6z m15900 -511 c0 -12 -19 -12 -23 0
-4 9 -1 12 9 8 7 -3 14 -7 14 -8z m0 -45 c0 -5 -5 -10 -11 -10 -5 0 -7 5 -4
10 3 6 8 10 11 10 2 0 4 -4 4 -10z m-16186 -435 c-4 -8 -10 -12 -15 -9 -11 6
-2 24 11 24 5 0 7 -7 4 -15z m16284 -20 c-3 -3 -9 2 -12 12 -6 14 -5 15 5 6 7
-7 10 -15 7 -18z m-16273 -43 c-3 -3 -11 0 -18 7 -9 10 -8 11 6 5 10 -3 15 -9
12 -12z m16295 -57 c0 -8 -4 -15 -10 -15 -5 0 -7 7 -4 15 4 8 8 15 10 15 2 0
4 -7 4 -15z m15 -84 c3 -5 2 -12 -3 -15 -5 -3 -9 1 -9 9 0 17 3 19 12 6z
m-16380 -211 c3 -5 -1 -10 -10 -10 -9 0 -13 5 -10 10 3 6 8 10 10 10 2 0 7 -4
10 -10z m5 -104 c0 -3 -4 -8 -10 -11 -5 -3 -10 -1 -10 4 0 6 5 11 10 11 6 0
10 -2 10 -4z m-19 -139 c-10 -9 -11 -8 -5 6 3 10 9 15 12 12 3 -3 0 -11 -7
-18z m16496 -222 c0 -8 -4 -12 -9 -9 -5 3 -6 10 -3 15 9 13 12 11 12 -6z
m-16537 -209 c0 -2 -7 -7 -16 -10 -8 -3 -12 -2 -9 4 6 10 25 14 25 6z m-13
-41 c0 -8 -4 -12 -9 -9 -5 3 -6 10 -3 15 9 13 12 11 12 -6z m3 -50 c14 -19 14
-19 -2 -6 -10 7 -18 18 -18 24 0 6 1 8 3 6 1 -2 9 -13 17 -24z m16595 -25 c-1
-11 -4 -22 -7 -25 -4 -5 -4 34 1 43 4 8 7 -1 6 -18z m-16596 -97 c10 -19 8
-24 -11 -33 -20 -10 -21 -9 -6 3 11 9 14 18 7 28 -5 8 -9 18 -9 23 0 12 4 7
19 -21z m16594 -88 c-3 -9 -8 -14 -10 -11 -3 3 -2 9 2 15 9 16 15 13 8 -4z m2
-55 c3 -5 2 -10 -4 -10 -5 0 -13 5 -16 10 -3 6 -2 10 4 10 5 0 13 -4 16 -10z
m-16595 -100 c0 -5 -5 -10 -11 -10 -5 0 -7 5 -4 10 3 6 8 10 11 10 2 0 4 -4 4
-10z m16604 -26 c3 -8 2 -12 -4 -9 -6 3 -10 10 -10 16 0 14 7 11 14 -7z
m-16629 -194 c3 -6 -1 -7 -9 -4 -18 7 -21 14 -7 14 6 0 13 -4 16 -10z m16613
-25 c-3 -3 -9 2 -12 12 -6 14 -5 15 5 6 7 -7 10 -15 7 -18z m-16623 -44 c3 -5
2 -12 -3 -15 -5 -3 -9 1 -9 9 0 17 3 19 12 6z m2 -76 c0 -8 -4 -12 -9 -9 -5 3
-6 10 -3 15 9 13 12 11 12 -6z m16633 -89 c0 -3 -4 -8 -10 -11 -5 -3 -10 -1
-10 4 0 6 5 11 10 11 6 0 10 -2 10 -4z m-16 -165 c3 -5 -2 -15 -12 -22 -15
-12 -16 -12 -5 2 7 9 10 19 6 22 -3 4 -4 7 0 7 3 0 8 -4 11 -9z m2 -163 c4 -7
3 -8 -4 -4 -7 4 -12 2 -12 -5 0 -7 -3 -10 -6 -6 -6 5 3 27 11 27 2 0 7 -5 11
-12z m-43 -213 c-3 -9 -8 -14 -10 -11 -3 3 -2 9 2 15 9 16 15 13 8 -4z
m-16518 -185 c-3 -4 0 -11 5 -13 6 -3 5 -4 -1 -3 -7 1 -13 10 -15 19 -1 9 2
15 7 11 5 -3 7 -9 4 -14z m16477 -44 c7 4 8 2 4 -5 -9 -13 -26 -5 -25 12 0 9
2 8 6 -1 2 -6 10 -9 15 -6z m-16452 -16 c0 -5 -2 -10 -4 -10 -3 0 -8 5 -11 10
-3 6 -1 10 4 10 6 0 11 -4 11 -10z m20 -26 c0 -8 -19 -13 -24 -6 -3 5 1 9 9 9
8 0 15 -2 15 -3z m16400 -216 c0 -4 -4 -8 -9 -8 -6 0 -12 4 -15 8 -3 5 1 9 9
9 8 0 15 -4 15 -9z m-7 -35 c-3 -7 -6 -13 -8 -13 -2 0 -5 6 -8 13 -3 8 1 14 8
14 7 0 11 -6 8 -14z m-36 -115 c-3 -8 -6 -5 -6 6 -1 11 2 17 5 13 3 -3 4 -12
1 -19z m13 -24 c0 -8 -19 -13 -24 -6 -3 5 1 9 9 9 8 0 15 -2 15 -3z m-35 -144
c3 -5 1 -10 -4 -10 -6 0 -11 5 -11 10 0 6 2 10 4 10 3 0 8 -4 11 -10z m-40
-89 c-3 -5 -1 -12 5 -16 5 -3 10 -11 10 -18 0 -6 -6 -2 -14 8 -13 18 -13 35 0
35 3 0 3 -4 -1 -9z m-16175 -91 c0 -5 -2 -10 -4 -10 -3 0 -8 5 -11 10 -3 6 -1
10 4 10 6 0 11 -4 11 -10z m20 -14 c0 -2 -6 -9 -14 -15 -11 -9 -16 -9 -22 0
-4 7 -3 9 4 5 6 -3 13 -2 17 4 6 10 15 14 15 6z m16090 -252 c0 -8 -19 -13
-24 -6 -3 5 1 9 9 9 8 0 15 -2 15 -3z m-16010 -74 c0 -5 -2 -10 -4 -10 -3 0
-8 5 -11 10 -3 6 -1 10 4 10 6 0 11 -4 11 -10z m15900 -316 c0 -8 -19 -13 -24
-6 -3 5 1 9 9 9 8 0 15 -2 15 -3z m-40 -64 c0 -5 -5 -10 -11 -10 -5 0 -7 5 -4
10 3 6 8 10 11 10 2 0 4 -4 4 -10z m-15729 -47 c13 -16 12 -17 -3 -4 -17 13
-22 21 -14 21 2 0 10 -8 17 -17z m42 -118 c-3 -9 -8 -14 -10 -11 -3 3 -2 9 2
15 9 16 15 13 8 -4z m15617 -90 c0 -12 -19 -12 -23 0 -4 9 -1 12 9 8 7 -3 14
-7 14 -8z m-15533 -131 c-3 -3 -12 -4 -19 -1 -8 3 -5 6 6 6 11 1 17 -2 13 -5z
m15368 -275 c-4 -5 -12 -9 -18 -8 -9 0 -8 2 1 6 6 2 9 10 6 15 -4 7 -2 8 5 4
6 -4 9 -12 6 -17z m-15065 -439 c0 -5 -2 -10 -4 -10 -3 0 -8 5 -11 10 -3 6 -1
10 4 10 6 0 11 -4 11 -10z m160 -280 c0 -5 -5 -10 -11 -10 -5 0 -7 5 -4 10 3
6 8 10 11 10 2 0 4 -4 4 -10z m14425 -209 c3 -5 0 -13 -6 -17 -7 -4 -9 -3 -5
4 3 5 0 13 -6 15 -9 4 -10 6 -1 6 6 1 14 -3 18 -8z m-14235 -151 c0 -5 -2 -10
-4 -10 -3 0 -8 5 -11 10 -3 6 -1 10 4 10 6 0 11 -4 11 -10z m14133 -15 c0 -6
-7 -11 -16 -11 -16 -2 -16 -1 -1 3 14 4 15 7 3 15 -11 7 -11 9 -1 6 8 -2 14
-8 15 -13z m-14048 -113 c-6 -6 -35 18 -35 29 0 5 9 1 20 -8 11 -9 17 -19 15
-21z m272 -398 c-3 -3 -12 -4 -19 -1 -8 3 -5 6 6 6 11 1 17 -2 13 -5z m15 -31
c-6 -2 -9 -10 -6 -15 4 -7 2 -8 -5 -4 -13 9 -5 26 12 25 9 0 8 -2 -1 -6z m238
-299 c0 -8 5 -14 12 -14 6 0 8 -3 5 -7 -4 -3 -16 3 -27 14 -10 12 -16 23 -13
27 9 8 23 -3 23 -20z m12734 -230 c3 -8 2 -12 -4 -9 -6 3 -10 10 -10 16 0 14
7 11 14 -7z m-45 -60 c-12 -15 -29 -10 -29 9 0 7 4 6 10 -3 9 -14 14 -7 11 13
-1 5 3 6 9 2 8 -5 8 -11 -1 -21z m-12429 -20 c0 -8 -19 -13 -24 -6 -3 5 1 9 9
9 8 0 15 -2 15 -3z m12410 -14 c0 -5 -10 -15 -22 -21 -23 -12 -23 -12 -4 10
21 23 26 26 26 11z m-71 -64 c10 -12 8 -17 -11 -26 -22 -11 -22 -10 -4 4 11 9
14 16 8 16 -7 0 -12 5 -12 10 0 14 5 13 19 -4z m-12179 -98 c0 -6 -6 -5 -15 2
-8 7 -15 14 -15 16 0 2 7 1 15 -2 8 -4 15 -11 15 -16z m60 -23 c0 -7 -30 -13
-34 -7 -3 4 4 9 15 9 10 1 19 0 19 -2z m11740 -276 c-9 -16 -14 -18 -26 -8 -8
6 -12 14 -9 18 3 3 10 0 14 -8 7 -10 10 -9 14 3 4 9 9 16 12 16 3 0 1 -9 -5
-21z m-120 -99 c0 -5 -5 -10 -11 -10 -5 0 -7 5 -4 10 3 6 8 10 11 10 2 0 4 -4
4 -10z m-11145 -110 c-3 -5 -12 -10 -18 -10 -7 0 -6 4 3 10 19 12 23 12 15 0z
m182 -172 c-3 -8 -6 -5 -6 6 -1 11 2 17 5 13 3 -3 4 -12 1 -19z m10622 -14
c-6 -8 -15 -12 -18 -8 -3 4 0 9 7 11 6 3 9 10 6 15 -4 7 -2 8 5 4 9 -6 9 -11
0 -22z m-10419 -118 c0 -3 -4 -8 -10 -11 -5 -3 -10 -1 -10 4 0 6 5 11 10 11 6
0 10 -2 10 -4z m35 -15 c3 -5 2 -12 -3 -15 -5 -3 -9 1 -9 9 0 17 3 19 12 6z
m42 -63 c-3 -8 -6 -5 -6 6 -1 11 2 17 5 13 3 -3 4 -12 1 -19z m139 -93 c-3 -8
2 -19 12 -24 9 -6 12 -11 6 -11 -6 0 -19 10 -30 22 -10 12 -13 18 -6 14 6 -4
12 -2 12 3 0 6 3 11 6 11 3 0 4 -7 0 -15z m311 -220 c0 -8 -4 -12 -9 -9 -5 3
-6 10 -3 15 9 13 12 11 12 -6z m76 -40 c-3 -9 -8 -14 -10 -11 -3 3 -2 9 2 15
9 16 15 13 8 -4z m137 -89 c0 -3 -4 -8 -10 -11 -5 -3 -10 -1 -10 4 0 6 5 11
10 11 6 0 10 -2 10 -4z m100 -67 c0 -5 -4 -9 -8 -9 -5 0 -9 7 -9 15 0 8 4 12
9 9 4 -3 8 -9 8 -15z m8530 -35 c0 -8 -19 -13 -24 -6 -3 5 1 9 9 9 8 0 15 -2
15 -3z m-8466 -12 c3 -5 -1 -9 -9 -9 -8 0 -12 4 -9 9 3 4 7 8 9 8 2 0 6 -4 9
-8z m73 -37 c0 -8 -4 -12 -9 -9 -5 3 -6 10 -3 15 9 13 12 11 12 -6z m134 -88
c-10 -9 -11 -8 -5 6 3 10 9 15 12 12 3 -3 0 -11 -7 -18z m8009 -7 c0 -5 -2
-10 -4 -10 -3 0 -8 5 -11 10 -3 6 -1 10 4 10 6 0 11 -4 11 -10z m-200 -90 c0
-5 -5 -10 -11 -10 -5 0 -7 5 -4 10 3 6 8 10 11 10 2 0 4 -4 4 -10z m-42 -25
c-3 -3 -9 2 -12 12 -6 14 -5 15 5 6 7 -7 10 -15 7 -18z m-218 -120 c-7 -9 -15
-13 -19 -10 -3 3 1 10 9 15 21 14 24 12 10 -5z m-200 -79 c0 -2 -7 -7 -16 -10
-8 -3 -12 -2 -9 4 6 10 25 14 25 6z m-6615 -26 c-6 -9 8 -14 28 -11 5 1 6 -3
2 -9 -4 -7 -12 -7 -26 0 -17 9 -19 30 -3 30 3 0 2 -4 -1 -10z m6385 -84 c0 -3
-4 -8 -10 -11 -5 -3 -10 -1 -10 4 0 6 5 11 10 11 6 0 10 -2 10 -4z m-477 -167
c-8 -8 -13 -7 -18 2 -5 8 -4 10 3 5 7 -4 12 -2 12 5 0 7 3 9 7 6 4 -4 2 -12
-4 -18z m-5240 -4 c-3 -9 -8 -14 -10 -11 -3 3 -2 9 2 15 9 16 15 13 8 -4z m27
-20 c0 -8 -2 -15 -4 -15 -2 0 -6 7 -10 15 -3 8 -1 15 4 15 6 0 10 -7 10 -15z
m640 -163 c0 -13 -12 -22 -22 -16 -10 6 -1 24 13 24 5 0 9 -4 9 -8z m41 -17
c5 4 9 1 9 -5 0 -17 -25 -6 -26 11 -1 9 1 10 3 1 3 -7 9 -10 14 -7z m3879 14
c0 -6 5 -7 12 -3 7 5 8 3 3 -5 -5 -9 -11 -9 -17 -3 -6 6 -17 8 -24 5 -8 -3
-14 -1 -14 4 0 5 9 9 20 10 11 1 20 -3 20 -8z m-3745 -28 c3 -5 2 -12 -3 -15
-5 -3 -9 1 -9 9 0 17 3 19 12 6z m3276 -74 c-10 -9 -11 -8 -5 6 3 10 9 15 12
12 3 -3 0 -11 -7 -18z m-3011 3 c0 -5 -2 -10 -4 -10 -3 0 -8 5 -11 10 -3 6 -1
10 4 10 6 0 11 -4 11 -10z m2897 -7 c0 -8 -6 -9 -19 -2 -10 5 -18 11 -18 12 0
2 8 3 18 3 10 0 19 -6 19 -13z m-2456 -16 c-6 -8 -9 -16 -6 -19 3 -2 -2 -5
-10 -5 -13 0 -13 3 2 19 19 21 31 25 14 5z m1496 -2 c0 -8 -4 -15 -9 -15 -10
0 -11 14 -1 23 9 10 10 9 10 -8z m923 1 c0 -2 -7 -7 -16 -10 -8 -3 -12 -2 -9
4 6 10 25 14 25 6z m-1060 -16 c0 -5 -2 -10 -4 -10 -3 0 -8 5 -11 10 -3 6 -1
10 4 10 6 0 11 -4 11 -10z m-493 -22 c-3 -8 -6 -5 -6 6 -1 11 2 17 5 13 3 -3
4 -12 1 -19z m51 -3 c-3 -3 -9 2 -12 12 -6 14 -5 15 5 6 7 -7 10 -15 7 -18z
m-458 6 c0 -5 -7 -12 -16 -15 -14 -5 -15 -4 -4 9 14 17 20 19 20 6z m640 -3
c0 -10 -17 -10 -24 0 -3 5 1 9 9 9 8 0 15 -4 15 -9z m63 -1 c18 11 36 12 42 3
3 -5 -3 -7 -15 -5 -11 2 -22 -1 -25 -6 -8 -12 -25 -2 -24 14 0 9 2 8 6 -1 2
-6 10 -9 16 -5z"/>
<path d="M7997 16653 c-4 -3 -7 -11 -7 -17 0 -6 5 -5 12 2 6 6 9 14 7 17 -3 3
-9 2 -12 -2z"/>
<path d="M8237 16653 c-4 -3 -7 -11 -7 -17 0 -6 5 -5 12 2 6 6 9 14 7 17 -3 3
-9 2 -12 -2z"/>
<path d="M8337 16653 c-10 -9 -9 -23 1 -23 5 0 9 7 9 15 0 17 -1 18 -10 8z"/>
<path d="M8545 16650 c-4 -6 -11 -7 -17 -4 -7 4 -8 2 -4 -5 6 -9 11 -9 22 0
14 11 18 19 10 19 -3 0 -8 -5 -11 -10z"/>
<path d="M8685 16650 c6 -10 4 -12 -11 -6 -15 6 -17 5 -6 -5 9 -9 15 -10 23
-2 8 8 7 13 -2 18 -8 6 -10 4 -4 -5z"/>
<path d="M7750 16639 c0 -5 5 -7 10 -4 6 3 10 8 10 11 0 2 -4 4 -10 4 -5 0
-10 -5 -10 -11z"/>
<path d="M7915 16640 c-3 -5 -1 -10 4 -10 6 0 11 5 11 10 0 6 -2 10 -4 10 -3
0 -8 -4 -11 -10z"/>
<path d="M8850 16641 c0 -6 4 -13 10 -16 6 -3 7 1 4 9 -7 18 -14 21 -14 7z"/>
<path d="M8931 16637 c-8 -10 -7 -14 2 -14 8 0 14 6 14 14 0 7 -1 13 -2 13 -2
0 -8 -6 -14 -13z"/>
<path d="M7201 16574 c0 -11 3 -14 6 -6 3 7 2 16 -1 19 -3 4 -6 -2 -5 -13z"/>
<path d="M9721 16544 c0 -11 3 -14 6 -6 3 7 2 16 -1 19 -3 4 -6 -2 -5 -13z"/>
<path d="M6819 16518 c17 -22 27 -23 35 -2 5 13 4 14 -7 6 -10 -9 -17 -8 -27
1 -12 10 -12 9 -1 -5z"/>
<path d="M6580 16449 c0 -5 5 -7 10 -4 6 3 10 8 10 11 0 2 -4 4 -10 4 -5 0
-10 -5 -10 -11z"/>
<path d="M6330 16406 c0 -2 7 -7 16 -10 8 -3 12 -2 9 4 -6 10 -25 14 -25 6z"/>
<path d="M6180 16361 c0 -6 4 -13 10 -16 6 -3 7 1 4 9 -7 18 -14 21 -14 7z"/>
<path d="M10541 16354 c0 -11 3 -14 6 -6 3 7 2 16 -1 19 -3 4 -6 -2 -5 -13z"/>
<path d="M10755 16319 c-4 -6 -5 -12 -2 -15 2 -3 7 2 10 11 7 17 1 20 -8 4z"/>
<path d="M5759 16243 c-13 -16 -12 -17 4 -4 16 13 21 21 13 21 -2 0 -10 -8
-17 -17z"/>
<path d="M11070 16200 c0 -5 5 -10 11 -10 5 0 7 5 4 10 -3 6 -8 10 -11 10 -2
0 -4 -4 -4 -10z"/>
<path d="M5561 16164 c0 -11 3 -14 6 -6 3 7 2 16 -1 19 -3 4 -6 -2 -5 -13z"/>
<path d="M5472 16138 c-7 -7 -12 -16 -12 -21 0 -5 7 -1 16 8 9 9 14 18 12 20
-2 3 -10 -1 -16 -7z"/>
<path d="M11305 16121 c-3 -5 -2 -12 3 -15 5 -3 9 1 9 9 0 17 -3 19 -12 6z"/>
<path d="M5250 16061 c0 -7 -5 -9 -12 -5 -7 5 -8 3 -3 -5 5 -9 10 -10 18 -2 6
6 8 14 4 18 -4 3 -7 1 -7 -6z"/>
<path d="M11620 15996 c0 -2 7 -9 15 -16 9 -7 15 -8 15 -2 0 5 -7 12 -15 16
-8 3 -15 4 -15 2z"/>
<path d="M5058 15983 c6 -2 9 -10 6 -15 -4 -7 -2 -8 5 -4 13 9 5 26 -12 25 -9
0 -8 -2 1 -6z"/>
<path d="M12131 15754 c0 -11 3 -14 6 -6 3 7 2 16 -1 19 -3 4 -6 -2 -5 -13z"/>
<path d="M4020 15419 c0 -5 -5 -7 -12 -3 -7 4 -8 3 -4 -5 6 -9 11 -9 22 0 17
14 18 19 4 19 -5 0 -10 -5 -10 -11z"/>
<path d="M12940 15283 c0 -19 21 -27 33 -13 9 10 9 11 -2 5 -8 -4 -17 -2 -22
6 -6 9 -9 10 -9 2z"/>
<path d="M3701 15243 c-1 -17 16 -25 25 -12 4 7 3 9 -4 5 -5 -3 -13 0 -15 6
-4 9 -6 10 -6 1z"/>
<path d="M13150 15150 c-9 -6 -10 -10 -3 -10 6 0 15 5 18 10 8 12 4 12 -15 0z"/>
<path d="M3550 15141 c0 -5 7 -12 16 -15 14 -5 15 -4 4 9 -14 17 -20 19 -20 6z"/>
<path d="M3475 15089 c-4 -6 -5 -12 -2 -15 2 -3 7 2 10 11 7 17 1 20 -8 4z"/>
<path d="M13678 14735 c-2 -6 3 -18 13 -27 17 -16 18 -16 16 2 -1 10 -4 17 -8
14 -4 -2 -9 1 -11 8 -3 7 -7 8 -10 3z"/>
<path d="M3000 14690 c-9 -6 -10 -10 -3 -10 6 0 15 5 18 10 8 12 4 12 -15 0z"/>
<path d="M2490 14219 c0 -5 -5 -7 -12 -3 -7 4 -8 3 -4 -5 6 -9 11 -9 22 0 17
14 18 19 4 19 -5 0 -10 -5 -10 -11z"/>
<path d="M2387 14119 c7 -7 15 -10 18 -7 3 3 -2 9 -12 12 -14 6 -15 5 -6 -5z"/>
<path d="M2027 13729 c7 -7 15 -10 18 -7 3 3 -2 9 -12 12 -14 6 -15 5 -6 -5z"/>
<path d="M14700 13726 c0 -2 7 -7 16 -10 8 -3 12 -2 9 4 -6 10 -25 14 -25 6z"/>
<path d="M1987 13683 c-4 -3 -7 -11 -7 -17 0 -6 5 -5 12 2 6 6 9 14 7 17 -3 3
-9 2 -12 -2z"/>
<path d="M15075 13280 c-3 -5 -1 -10 4 -10 6 0 11 5 11 10 0 6 -2 10 -4 10 -3
0 -8 -4 -11 -10z"/>
<path d="M1495 13040 c-3 -5 -1 -10 4 -10 6 0 11 5 11 10 0 6 -2 10 -4 10 -3
0 -8 -4 -11 -10z"/>
<path d="M15305 12900 c3 -5 8 -10 11 -10 2 0 4 5 4 10 0 6 -5 10 -11 10 -5 0
-7 -4 -4 -10z"/>
<path d="M1206 12589 c4 -6 0 -15 -7 -20 -8 -5 -9 -9 -3 -9 6 0 17 6 23 14 9
11 8 15 -4 20 -10 4 -14 2 -9 -5z"/>
<path d="M15583 12491 c0 -11 5 -18 9 -15 4 3 5 11 1 19 -7 21 -12 19 -10 -4z"/>
<path d="M15660 12325 c0 -2 6 -8 13 -14 10 -8 14 -7 14 2 0 8 -6 14 -14 14
-7 0 -13 -1 -13 -2z"/>
<path d="M1041 12293 c3 -21 -3 -24 -18 -12 -16 13 -17 12 -4 -4 10 -13 17
-15 27 -6 8 6 11 15 8 20 -6 11 -14 12 -13 2z"/>
<path d="M856 11942 c-3 -5 1 -9 9 -9 8 0 12 4 9 9 -3 4 -7 8 -9 8 -2 0 -6 -4
-9 -8z"/>
<path d="M815 11859 c-3 -4 2 -6 10 -5 21 3 28 13 10 13 -9 0 -18 -4 -20 -8z"/>
<path d="M16040 11566 c0 -8 4 -17 9 -20 5 -4 7 3 4 14 -6 23 -13 26 -13 6z"/>
<path d="M16227 11069 c7 -7 15 -10 18 -7 3 3 -2 9 -12 12 -14 6 -15 5 -6 -5z"/>
<path d="M16265 10961 c-6 -11 13 -26 22 -17 4 3 1 6 -6 6 -7 0 -9 5 -6 10 3
6 4 10 1 10 -3 0 -7 -4 -11 -9z"/>
<path d="M16287 10883 c-8 -8 22 -43 36 -43 6 0 0 8 -11 19 -12 10 -19 21 -15
25 3 3 4 6 1 6 -2 0 -8 -3 -11 -7z"/>
<path d="M276 10312 c-3 -5 1 -9 9 -9 8 0 12 4 9 9 -3 4 -7 8 -9 8 -2 0 -6 -4
-9 -8z"/>
<path d="M220 10126 c0 -2 8 -10 18 -17 15 -13 16 -12 3 4 -13 16 -21 21 -21
13z"/>
<path d="M16575 9660 c3 -5 8 -10 11 -10 2 0 4 5 4 10 0 6 -5 10 -11 10 -5 0
-7 -4 -4 -10z"/>
<path d="M16599 9548 c-5 -16 -4 -46 2 -42 4 2 7 13 6 24 -1 17 -5 26 -8 18z"/>
<path d="M16607 9389 c7 -7 15 -10 18 -7 3 3 -2 9 -12 12 -14 6 -15 5 -6 -5z"/>
<path d="M16665 9101 c-6 -11 13 -26 22 -17 4 3 1 6 -6 6 -7 0 -9 5 -6 10 3 6
4 10 1 10 -3 0 -7 -4 -11 -9z"/>
<path d="M37 7839 c7 -7 15 -10 18 -7 3 3 -2 9 -12 12 -14 6 -15 5 -6 -5z"/>
<path d="M34 7638 c-5 -7 -3 -8 6 -3 10 6 12 4 7 -9 -4 -10 -3 -15 3 -11 13 8
13 35 1 35 -6 0 -13 -5 -17 -12z"/>
<path d="M16675 7560 c-3 -5 -1 -10 4 -10 6 0 11 5 11 10 0 6 -2 10 -4 10 -3
0 -8 -4 -11 -10z"/>
<path d="M16605 7180 c-3 -5 -1 -10 4 -10 6 0 11 5 11 10 0 6 -2 10 -4 10 -3
0 -8 -4 -11 -10z"/>
<path d="M133 7110 c-1 -11 2 -20 5 -20 4 0 8 9 9 20 1 11 -2 20 -5 20 -4 0
-8 -9 -9 -20z"/>
<path d="M140 7051 c0 -6 4 -13 10 -16 6 -3 7 1 4 9 -7 18 -14 21 -14 7z"/>
<path d="M16570 7046 c0 -2 7 -7 16 -10 8 -3 12 -2 9 4 -6 10 -25 14 -25 6z"/>
<path d="M16516 6733 c-6 -14 -5 -15 5 -6 7 7 10 15 7 18 -3 3 -9 -2 -12 -12z"/>
<path d="M16410 6301 c0 -6 4 -13 10 -16 6 -3 7 1 4 9 -7 18 -14 21 -14 7z"/>
<path d="M415 5909 c-4 -6 -5 -12 -2 -15 2 -3 7 2 10 11 7 17 1 20 -8 4z"/>
<path d="M16075 5240 c3 -5 8 -10 11 -10 2 0 4 5 4 10 0 6 -5 10 -11 10 -5 0
-7 -4 -4 -10z"/>
<path d="M835 4800 c-4 -6 -1 -9 7 -8 7 2 12 -2 11 -7 -1 -6 7 -11 17 -12 18
-2 18 -1 -1 18 -22 22 -25 23 -34 9z"/>
<path d="M980 4519 c0 -5 5 -7 10 -4 6 3 10 8 10 11 0 2 -4 4 -10 4 -5 0 -10
-5 -10 -11z"/>
<path d="M15715 4501 c-3 -5 -2 -12 3 -15 5 -3 9 1 9 9 0 17 -3 19 -12 6z"/>
<path d="M15685 4440 c-3 -5 -1 -10 4 -10 6 0 11 5 11 10 0 6 -2 10 -4 10 -3
0 -8 -4 -11 -10z"/>
<path d="M1059 4408 c-5 -18 -6 -38 -1 -34 7 8 12 36 6 36 -2 0 -4 -1 -5 -2z"/>
<path d="M1130 4246 c0 -2 7 -9 15 -16 13 -11 14 -10 9 4 -5 14 -24 23 -24 12z"/>
<path d="M1196 4137 c3 -10 9 -15 12 -12 3 3 0 11 -7 18 -10 9 -11 8 -5 -6z"/>
<path d="M15518 4123 c7 -3 16 -2 19 1 4 3 -2 6 -13 5 -11 0 -14 -3 -6 -6z"/>
<path d="M1453 3717 c-3 -6 -1 -7 5 -3 6 3 20 -4 32 -16 l22 -23 -12 26 c-12
26 -36 34 -47 16z"/>
<path d="M1708 3373 c7 -3 16 -2 19 1 4 3 -2 6 -13 5 -11 0 -14 -3 -6 -6z"/>
<path d="M1816 3228 c3 -5 9 -7 12 -4 8 9 33 -15 26 -25 -3 -5 0 -9 5 -9 16 0
13 16 -5 31 -19 16 -47 21 -38 7z"/>
<path d="M14705 3009 c-11 -17 1 -21 15 -4 8 9 8 15 2 15 -6 0 -14 -5 -17 -11z"/>
<path d="M2054 2949 c-4 -7 -3 -9 4 -5 5 3 12 0 15 -6 2 -7 7 -10 11 -7 4 3 0
12 -8 18 -11 9 -16 9 -22 0z"/>
<path d="M2110 2880 c0 -5 5 -10 11 -10 5 0 7 5 4 10 -3 6 -8 10 -11 10 -2 0
-4 -4 -4 -10z"/>
<path d="M2242 2746 c7 -8 15 -12 17 -11 5 6 -10 25 -20 25 -5 0 -4 -6 3 -14z"/>
<path d="M2506 2458 c3 -5 10 -6 15 -3 13 9 11 12 -6 12 -8 0 -12 -4 -9 -9z"/>
<path d="M2630 2339 c0 -5 5 -7 10 -4 6 3 10 8 10 11 0 2 -4 4 -10 4 -5 0 -10
-5 -10 -11z"/>
<path d="M14054 2305 c-10 -8 -14 -15 -7 -15 6 0 15 5 18 10 4 6 11 7 17 4 7
-4 8 -2 4 4 -9 15 -8 15 -32 -3z"/>
<path d="M13913 2165 c0 -8 4 -12 9 -9 5 3 6 10 3 15 -9 13 -12 11 -12 -6z"/>
<path d="M2950 2080 c0 -5 5 -10 11 -10 5 0 7 5 4 10 -3 6 -8 10 -11 10 -2 0
-4 -4 -4 -10z"/>
<path d="M13590 1906 c0 -2 7 -7 16 -10 8 -3 12 -2 9 4 -6 10 -25 14 -25 6z"/>
<path d="M13427 1779 c7 -7 15 -10 18 -7 3 3 -2 9 -12 12 -14 6 -15 5 -6 -5z"/>
<path d="M3580 1571 c0 -10 19 -25 25 -20 1 2 -3 10 -11 17 -8 7 -14 8 -14 3z"/>
<path d="M13085 1551 c-3 -5 -1 -12 5 -16 5 -3 10 -1 10 5 0 6 5 8 12 4 7 -4
8 -3 4 4 -9 14 -23 15 -31 3z"/>
<path d="M3659 1527 c7 -9 20 -17 29 -17 14 0 8 15 -6 15 -4 0 -14 4 -22 10
-13 8 -13 7 -1 -8z"/>
<path d="M13029 1483 c-13 -16 -12 -17 4 -4 16 13 21 21 13 21 -2 0 -10 -8
-17 -17z"/>
<path d="M12913 1415 c0 -8 4 -12 9 -9 5 3 6 10 3 15 -9 13 -12 11 -12 -6z"/>
<path d="M12750 1336 c0 -2 7 -7 16 -10 8 -3 12 -2 9 4 -6 10 -25 14 -25 6z"/>
<path d="M12676 1258 c3 -5 10 -6 15 -3 13 9 11 12 -6 12 -8 0 -12 -4 -9 -9z"/>
<path d="M4300 1120 c-12 -7 -10 -9 8 -7 12 0 22 5 22 9 0 11 -12 10 -30 -2z"/>
<path d="M12390 1116 c0 -2 8 -10 18 -17 15 -13 16 -12 3 4 -13 16 -21 21 -21
13z"/>
<path d="M4420 1059 c-13 -9 -12 -10 3 -5 23 7 49 -3 40 -17 -4 -6 -1 -7 7 -2
10 6 9 11 -5 22 -22 16 -26 16 -45 2z"/>
<path d="M4525 1020 c-3 -5 -1 -10 4 -10 6 0 11 5 11 10 0 6 -2 10 -4 10 -3 0
-8 -4 -11 -10z"/>
<path d="M4674 949 c-10 -17 23 -46 37 -32 8 8 6 11 -7 10 -13 -1 -18 4 -16
16 3 19 -3 22 -14 6z"/>
<path d="M5027 767 c-3 -7 3 -13 14 -13 13 0 15 3 7 13 -6 7 -12 13 -13 13 -2
0 -5 -6 -8 -13z"/>
<path d="M5151 714 c0 -11 3 -14 6 -6 3 7 2 16 -1 19 -3 4 -6 -2 -5 -13z"/>
<path d="M11547 714 c-4 -4 -7 -11 -7 -15 0 -10 24 -5 28 6 4 12 -12 18 -21 9z"/>
<path d="M5270 670 c0 -6 4 -9 9 -6 5 4 12 1 14 -4 3 -6 4 -5 3 2 -3 15 -26
23 -26 8z"/>
<path d="M5513 578 c2 -7 10 -12 17 -10 7 1 18 -3 26 -9 8 -6 14 -7 14 -2 0 5
-11 15 -25 21 -33 15 -38 15 -32 0z"/>
<path d="M5685 510 c-4 -6 -11 -7 -17 -4 -7 4 -8 2 -4 -5 6 -8 12 -9 20 -2 7
6 17 7 21 3 5 -4 5 -1 1 6 -9 15 -13 15 -21 2z"/>
<path d="M10906 471 c-4 -5 -2 -12 3 -15 5 -4 12 -2 15 3 4 5 2 12 -3 15 -5 4
-12 2 -15 -3z"/>
<path d="M5980 406 c0 -2 7 -7 16 -10 8 -3 12 -2 9 4 -6 10 -25 14 -25 6z"/>
<path d="M10666 397 c3 -10 9 -15 12 -12 3 3 0 11 -7 18 -10 9 -11 8 -5 -6z"/>
<path d="M6238 353 c6 -2 9 -10 6 -15 -4 -7 -2 -8 5 -4 13 9 5 26 -12 25 -9 0
-8 -2 1 -6z"/>
<path d="M10055 241 c-3 -5 -2 -12 3 -15 5 -3 9 1 9 9 0 17 -3 19 -12 6z"/>
<path d="M6976 207 c3 -10 9 -15 12 -12 3 3 0 11 -7 18 -10 9 -11 8 -5 -6z"/>
<path d="M7196 191 c-4 -5 -2 -12 4 -16 5 -3 10 -3 10 1 0 3 6 1 14 -5 11 -9
16 -9 22 1 4 7 3 10 -1 5 -5 -4 -16 0 -26 9 -10 9 -19 11 -23 5z"/>
<path d="M9546 167 c3 -10 9 -15 12 -12 3 3 0 11 -7 18 -10 9 -11 8 -5 -6z"/>
<path d="M7375 160 c-3 -5 -1 -10 4 -10 6 0 11 5 11 10 0 6 -2 10 -4 10 -3 0
-8 -4 -11 -10z"/>
<path d="M7985 154 c-10 -8 -14 -14 -8 -14 7 0 15 5 18 10 4 7 13 6 27 -1 15
-8 23 -8 32 2 8 9 8 10 -1 5 -7 -4 -21 -3 -30 3 -13 6 -24 5 -38 -5z"/>
<path d="M8094 163 c12 -22 43 -34 43 -18 0 8 -4 12 -9 9 -5 -3 -16 0 -25 8
-12 9 -15 9 -9 1z"/>
<path d="M9020 160 c0 -5 5 -10 11 -10 5 0 7 5 4 10 -3 6 -8 10 -11 10 -2 0
-4 -4 -4 -10z"/>
<path d="M9076 161 c-3 -5 1 -11 9 -14 9 -4 12 -1 8 9 -6 16 -10 17 -17 5z"/>
<path d="M9156 153 c-6 -14 -5 -15 5 -6 7 7 10 15 7 18 -3 3 -9 -2 -12 -12z"/>
<path d="M9234 159 c-4 -7 -3 -9 4 -5 5 3 13 0 15 -6 4 -9 6 -10 6 -1 1 17
-16 25 -25 12z"/>
<path d="M7930 146 c7 -7 13 -7 20 0 6 6 3 10 -10 10 -13 0 -16 -4 -10 -10z"/>
<path d="M8315 150 c-4 -6 -11 -8 -16 -5 -5 4 -9 1 -9 -4 0 -14 13 -14 28 1 7
7 12 8 12 2 0 -6 7 -11 15 -11 20 0 19 4 -4 17 -14 7 -22 7 -26 0z"/>
<path d="M9297 153 c-4 -3 -7 -11 -7 -17 0 -6 5 -5 12 2 6 6 9 14 7 17 -3 3
-9 2 -12 -2z"/>
<path d="M7570 140 c0 -5 5 -10 11 -10 5 0 7 5 4 10 -3 6 -8 10 -11 10 -2 0
-4 -4 -4 -10z"/>
<path d="M8507 119 c7 -7 15 -10 18 -7 3 3 -2 9 -12 12 -14 6 -15 5 -6 -5z"/>
</g>
</svg>
